<svg width="61" height="43" viewBox="0 0 61 43" fill="none" xmlns="http://www.w3.org/2000/svg">
<path d="M58.9888 41.2322H1.48877L8.98877 11.2322H15.4888L17.4888 14.2322H23.4888L26.9888 11.2322H51.4888L58.9888 41.2322Z" fill="#FFDD54"/>
<path d="M54.7588 41.2322H1.48877L9.26877 11.2322H10.8388" stroke="#592E1E" stroke-width="2" stroke-linecap="round" stroke-linejoin="round"/>
<path d="M29.9888 11.2322H51.4888L59.2688 41.2322" stroke="#592E1E" stroke-width="2" stroke-linecap="round" stroke-linejoin="round"/>
<path d="M53.5588 19.2222L48.5188 20.8522H48.5088" stroke="#592E1E" stroke-width="2" stroke-linecap="round" stroke-linejoin="round"/>
<path d="M44.769 22.0622L28.349 27.3622L24.589 28.5722L2.96898 35.5522H2.95898" stroke="#592E1E" stroke-width="2" stroke-linecap="round" stroke-linejoin="round"/>
<path d="M28.6387 31.9422L10.9487 37.6522" stroke="#592E1E" stroke-width="2" stroke-linecap="round" stroke-linejoin="round"/>
<path d="M32.3789 30.7322L48.8089 25.4322L51.4289 24.5822" stroke="#592E1E" stroke-width="2" stroke-linecap="round" stroke-linejoin="round"/>
<path d="M35.9287 38.0222L28.6387 31.9422" stroke="#592E1E" stroke-width="2" stroke-linecap="round" stroke-linejoin="round"/>
<path d="M44.9789 41.2322L32.3789 30.7322" stroke="#592E1E" stroke-width="2" stroke-linecap="round" stroke-linejoin="round"/>
<path d="M48.519 20.8522H48.509L40.729 14.3622" stroke="#592E1E" stroke-width="2" stroke-linecap="round" stroke-linejoin="round"/>
<path d="M44.7688 22.0622L31.7788 11.2322" stroke="#592E1E" stroke-width="2" stroke-linecap="round" stroke-linejoin="round"/>
<path d="M20.379 14.5722C24.0627 14.5722 27.049 11.5859 27.049 7.90218C27.049 4.21844 24.0627 1.23218 20.379 1.23218C16.6952 1.23218 13.709 4.21844 13.709 7.90218C13.709 11.5859 16.6952 14.5722 20.379 14.5722Z" stroke="#592E1E" stroke-width="2" stroke-linecap="round" stroke-linejoin="round"/>
<path d="M21.0688 4.29218C21.6446 4.40543 22.1853 4.65402 22.646 5.01743C23.1068 5.38083 23.4745 5.84862 23.7188 6.38217" stroke="#592E1E" stroke-width="0.5" stroke-linecap="round" stroke-linejoin="round"/>
<path d="M20.3789 14.5622V22.3422" stroke="#592E1E" stroke-width="2" stroke-linecap="round" stroke-linejoin="round"/>
</svg>
