<svg width="20" height="24" viewBox="0 0 20 24" fill="none" xmlns="http://www.w3.org/2000/svg">
<path d="M13.9557 8.47682L13.4196 19.0767C13.4133 19.1996 13.3593 19.3155 13.2687 19.4003C13.1781 19.4852 13.0579 19.5326 12.9328 19.5327H12.9084C12.8443 19.5296 12.7815 19.5141 12.7235 19.4871C12.6655 19.4601 12.6135 19.4221 12.5704 19.3753C12.5274 19.3285 12.4941 19.2737 12.4726 19.2143C12.4511 19.1548 12.4417 19.0917 12.445 19.0287L12.9786 8.47682H10.5806V19.0527C10.5806 19.18 10.5292 19.3021 10.4377 19.3921C10.3462 19.4821 10.2221 19.5327 10.0928 19.5327C9.9634 19.5327 9.83932 19.4821 9.74784 19.3921C9.65636 19.3021 9.60497 19.18 9.60497 19.0527V8.47682H7.20643L7.74009 19.0287C7.74337 19.0917 7.73398 19.1548 7.71246 19.2143C7.69093 19.2737 7.6577 19.3285 7.61465 19.3753C7.5716 19.4221 7.51959 19.4601 7.4616 19.4871C7.4036 19.5141 7.34076 19.5296 7.27667 19.5327H7.25228C6.99375 19.5327 6.77863 19.333 6.76546 19.0767L6.22984 8.47682H2.21863C2.17619 8.47682 2.13424 8.47202 2.0918 8.47058L3.34058 21.624C3.38737 22.1429 3.63035 22.6257 4.02147 22.9767C4.41259 23.3278 4.92336 23.5217 5.45277 23.52H14.7308C15.8333 23.52 16.7406 22.704 16.843 21.624L18.0918 8.47058C18.0508 8.4725 18.0108 8.47682 17.9698 8.47682H13.9552H13.9557Z" fill="#592E1E"/>
<path d="M17.9693 3.76798H14.301V2.70238C14.301 1.47358 13.2912 0.47998 12.0425 0.47998H8.14002C6.89611 0.47998 5.88148 1.47358 5.88148 2.70238V3.76798H2.21806C1.2766 3.76798 0.515625 4.51678 0.515625 5.44318V5.84158C0.515625 6.76318 1.2766 7.51678 2.21806 7.51678H17.9693C18.4204 7.51551 18.8527 7.33861 19.1717 7.02473C19.4907 6.71084 19.6704 6.28548 19.6717 5.84158V5.44318C19.6717 4.51678 18.9059 3.76798 17.9693 3.76798ZM13.3254 3.76798H6.85709V2.70238C6.85709 2.00638 7.4327 1.43998 8.14002 1.43998H12.0425C12.7498 1.43998 13.3254 2.00638 13.3254 2.70238V3.76798Z" fill="#FFDD54"/>
</svg>
