<svg width="23" height="20" viewBox="0 0 23 20" fill="none" xmlns="http://www.w3.org/2000/svg">
<path fill-rule="evenodd" clip-rule="evenodd" d="M1.2221 6.34686L11.3997 10.6607C11.4902 10.6991 11.5877 10.7189 11.6862 10.7189C11.7846 10.7189 11.8821 10.6991 11.9726 10.6607L22.1502 6.34686C22.2809 6.2914 22.3923 6.19925 22.4706 6.0818C22.5488 5.96436 22.5906 5.82678 22.5906 5.68612C22.5906 5.54546 22.5488 5.40788 22.4706 5.29044C22.3923 5.17299 22.2809 5.08084 22.1502 5.02538L11.9726 0.711509C11.8821 0.673137 11.7846 0.653351 11.6862 0.653351C11.5877 0.653351 11.4902 0.673137 11.3997 0.711509L1.2221 5.02538C1.09139 5.08084 0.980004 5.17299 0.901731 5.29044C0.823458 5.40788 0.781738 5.54546 0.781738 5.68612C0.781738 5.82678 0.823458 5.96436 0.901731 6.0818C0.980004 6.19925 1.09139 6.2914 1.2221 6.34686Z" fill="#FFE1CF"/>
<path fill-rule="evenodd" clip-rule="evenodd" d="M22.1502 9.33925L20.4658 8.62531L12.5418 11.9822C12.2703 12.0973 11.9779 12.1567 11.6825 12.1567C11.3871 12.1567 11.0948 12.0973 10.8232 11.9822L2.90649 8.62531L1.2221 9.33925C1.09139 9.39471 0.980004 9.48687 0.901731 9.60431C0.823458 9.72176 0.781738 9.85933 0.781738 9.99999C0.781738 10.1407 0.823458 10.2782 0.901731 10.3957C0.980004 10.5131 1.09139 10.6053 1.2221 10.6607L11.3997 14.9746C11.4902 15.013 11.5877 15.0328 11.6862 15.0328C11.7846 15.0328 11.8821 15.013 11.9726 14.9746L22.1502 10.6607C22.2809 10.6053 22.3923 10.5131 22.4706 10.3957C22.5488 10.2782 22.5906 10.1407 22.5906 9.99999C22.5906 9.85933 22.5488 9.72176 22.4706 9.60431C22.3923 9.48687 22.2809 9.39471 22.1502 9.33925Z" fill="#FFE1CF"/>
<path fill-rule="evenodd" clip-rule="evenodd" d="M22.1502 13.6531L20.4658 12.9392L12.5418 16.2961C12.2703 16.4112 11.9779 16.4706 11.6825 16.4706C11.3871 16.4706 11.0948 16.4112 10.8232 16.2961L2.90649 12.9392L1.2221 13.6531C1.09139 13.7086 0.980004 13.8007 0.901731 13.9182C0.823458 14.0356 0.781738 14.1732 0.781738 14.3139C0.781738 14.4545 0.823458 14.5921 0.901731 14.7095C0.980004 14.827 1.09139 14.9191 1.2221 14.9746L11.3997 19.2885C11.4902 19.3268 11.5877 19.3466 11.6862 19.3466C11.7846 19.3466 11.8821 19.3268 11.9726 19.2885L22.1502 14.9746C22.2809 14.9191 22.3923 14.827 22.4706 14.7095C22.5488 14.5921 22.5906 14.4545 22.5906 14.3139C22.5906 14.1732 22.5488 14.0356 22.4706 13.9182C22.3923 13.8007 22.2809 13.7086 22.1502 13.6531Z" fill="#FFE1CF"/>
</svg>
