<svg width="25" height="24" viewBox="0 0 25 24" fill="none" xmlns="http://www.w3.org/2000/svg">
<path d="M11.889 5.73865C11.889 8.90803 9.41349 11.4773 6.35978 11.4773C3.30608 11.4773 0.830566 8.90803 0.830566 5.73865C0.830566 2.56926 3.30608 -3.05176e-05 6.35978 -3.05176e-05C9.41349 -3.05176e-05 11.889 2.56926 11.889 5.73865Z" fill="#FFE1CF"/>
<path d="M0.830566 13.5226C0.830566 12.9703 1.27828 12.5226 1.83057 12.5226H10.889C11.4413 12.5226 11.889 12.9703 11.889 13.5226V22.9999C11.889 23.5522 11.4413 23.9999 10.889 23.9999H1.83057C1.27828 23.9999 0.830566 23.5522 0.830566 22.9999V13.5226Z" fill="#FFE1CF"/>
<path d="M13.7717 21.0368C13.7717 20.4846 14.2194 20.0368 14.7717 20.0368H23.8301C24.3824 20.0368 24.8301 20.4846 24.8301 21.0368V23C24.8301 23.5523 24.3824 24 23.8301 24H14.7717C14.2194 24 13.7717 23.5523 13.7717 23V21.0368Z" fill="#FFE1CF"/>
<path d="M13.7717 13.5226C13.7717 12.9703 14.2194 12.5226 14.7717 12.5226H16.0892C16.6415 12.5226 17.0892 12.9703 17.0892 13.5226V18.409C17.0892 18.9613 16.6415 19.409 16.0892 19.409H14.7717C14.2194 19.409 13.7717 18.9613 13.7717 18.409V13.5226Z" fill="#FFE1CF"/>
<path d="M17.6424 13.5226C17.6424 12.9703 18.0901 12.5226 18.6424 12.5226H19.9599C20.5122 12.5226 20.9599 12.9703 20.9599 13.5226V18.409C20.9599 18.9613 20.5122 19.409 19.9599 19.409H18.6424C18.0901 19.409 17.6424 18.9613 17.6424 18.409V13.5226Z" fill="#FFE1CF"/>
<path d="M21.513 13.5226C21.513 12.9703 21.9608 12.5226 22.513 12.5226H23.8306C24.3829 12.5226 24.8306 12.9703 24.8306 13.5226V18.409C24.8306 18.9613 24.3829 19.409 23.8306 19.409H22.513C21.9608 19.409 21.513 18.9613 21.513 18.409V13.5226Z" fill="#FFE1CF"/>
<path d="M18.5808 0.747377C18.9741 0.339167 19.6277 0.339167 20.0211 0.747377L24.1616 5.04481C24.5348 5.43211 24.5348 6.04519 24.1616 6.43249L20.0211 10.7299C19.6277 11.1381 18.9741 11.1381 18.5808 10.7299L14.4402 6.43249C14.0671 6.04519 14.0671 5.43211 14.4402 5.04481L18.5808 0.747377Z" fill="#FFE1CF"/>
</svg>
