
<svg width="26" height="26" viewBox="0 0 26 26" fill="none" xmlns="http://www.w3.org/2000/svg">
<path fill-rule="evenodd" clip-rule="evenodd" d="M23.3728 16.5776C23.6142 15.9596 23.9592 15.3921 24.3918 14.9021C24.9055 14.3951 25.2503 13.7283 25.3752 13.0001C25.2523 12.2713 24.9092 11.6032 24.3967 11.0945C23.9643 10.6046 23.6191 10.0371 23.378 9.41907C23.2193 8.74881 23.176 8.05422 23.2501 7.368C23.373 6.66441 23.2825 5.93811 22.9913 5.29135C22.4907 4.79662 21.8547 4.47951 21.173 4.38485C20.5322 4.24972 19.92 3.99462 19.3657 3.6318C18.8719 3.19399 18.4572 2.66686 18.1409 2.07542C17.7105 1.37702 17.3036 0.717432 16.7421 0.526085C16.0753 0.438586 15.3993 0.572425 14.8086 0.908793C14.1987 1.19994 13.5438 1.37377 12.8753 1.42199C12.2077 1.37335 11.5541 1.19952 10.9452 0.908793C10.3547 0.572371 9.67849 0.438532 9.0117 0.526085C8.45286 0.717432 8.04261 1.37702 7.61224 2.07542C7.29619 2.66655 6.88163 3.1934 6.38826 3.63091C5.83393 3.99352 5.22214 4.2486 4.58162 4.38398C3.89985 4.48003 3.26405 4.79871 2.76432 5.29488C2.4731 5.94133 2.38239 6.66735 2.50532 7.37064C2.57941 8.05716 2.53631 8.75204 2.37767 9.42261C2.13632 10.0406 1.79133 10.6081 1.3587 11.098C0.845014 11.6051 0.500229 12.2719 0.375244 13.0001C0.498176 13.7289 0.84132 14.3969 1.35378 14.9057C1.7862 15.3956 2.13139 15.9631 2.37254 16.5811C2.53118 17.2513 2.57448 17.9459 2.50039 18.6322C2.37746 19.3357 2.46797 20.0621 2.75919 20.7088C3.25974 21.2035 3.89575 21.5207 4.57752 21.6153C5.21824 21.7505 5.83044 22.0055 6.38477 22.3684C6.87855 22.8062 7.29332 23.3333 7.60957 23.9247C8.03994 24.6231 8.44691 25.2827 9.00842 25.4741C9.67521 25.5611 10.3512 25.4273 10.9419 25.0914C11.5518 24.8002 12.2067 24.6264 12.8753 24.5782C13.5413 24.6264 14.1939 24.7993 14.802 25.0887C15.3925 25.4249 16.0687 25.5587 16.7353 25.4714C17.2943 25.2801 17.7046 24.6205 18.135 23.9221C18.4512 23.3306 18.866 22.8034 19.3598 22.3657C19.9141 22.0031 20.5259 21.748 21.1662 21.6127C21.8488 21.5181 22.4854 21.2007 22.9862 20.7053C23.2774 20.0588 23.3681 19.3328 23.2452 18.6295C23.1711 17.943 23.2142 17.2481 23.3728 16.5776ZM7.73805 4.93496C9.25859 3.86912 11.0463 3.30024 12.8753 3.30024C15.3268 3.30304 17.6773 4.32588 19.4109 6.14434C21.1442 7.96282 22.1195 10.4284 22.1222 13.0001C22.1222 14.9185 21.5797 16.7939 20.5636 18.389C19.5476 19.9842 18.1036 21.2274 16.4139 21.9616C14.7243 22.6957 12.8651 22.8878 11.0714 22.5136C9.27768 22.1393 7.62989 21.2154 6.33674 19.8589C5.04359 18.5024 4.16296 16.774 3.80606 14.8924C3.44937 13.0108 3.63244 11.0605 4.33227 9.28811C5.0321 7.5157 6.2173 6.00079 7.73805 4.93496ZM12.8753 21.8181C11.2126 21.8181 9.58737 21.3009 8.20495 20.332C6.82273 19.3631 5.74527 17.9859 5.10886 16.3746C4.47265 14.7633 4.30621 12.9903 4.63067 11.2798C4.95493 9.56923 5.75553 7.99801 6.93109 6.76479C8.10685 5.53156 9.60461 4.69173 11.2354 4.35148C12.8659 4.01123 14.5562 4.18586 16.0921 4.85327C17.6283 5.52069 18.9411 6.65092 19.8648 8.10105C20.7884 9.55116 21.2815 11.256 21.2815 13.0001C21.2791 15.338 20.3925 17.5794 18.8165 19.2325C17.2408 20.8857 15.1039 21.8155 12.8753 21.8181ZM17.1197 18.625C17.7967 18.7254 18.3572 17.9827 18.2232 17.1587C17.948 15.4687 17.6911 12.9529 18.2897 11.6022C18.2907 11.5997 18.2911 11.597 18.2911 11.5943C18.2909 11.5916 18.2903 11.589 18.2891 11.5866C18.2879 11.5842 18.286 11.5822 18.284 11.5806C18.2819 11.579 18.2796 11.5779 18.277 11.5774C17.8394 11.5036 17.4204 11.3381 17.045 11.0909C16.6696 10.8436 16.3456 10.5197 16.0921 10.1383C15.8387 9.75685 15.6609 9.32583 15.5696 8.87085C15.4783 8.41589 15.4752 7.94628 15.5606 7.49004C15.5612 7.48765 15.5612 7.48515 15.5608 7.48274C15.5604 7.48032 15.5593 7.47804 15.5579 7.47604C15.5565 7.47404 15.5548 7.47239 15.5528 7.47118C15.5507 7.46997 15.5485 7.46923 15.546 7.46901C14.9611 7.41167 14.2877 7.37534 13.5132 7.36578H13.0656C6.12146 7.45464 7.26787 9.62919 8.05821 11.1283C8.13496 11.2741 8.20843 11.4134 8.27082 11.5439C8.90313 12.8754 8.64167 15.4467 8.36195 17.1587C8.22793 17.9827 8.78841 18.7206 9.46546 18.625C10.5343 18.4673 12.0269 18.2848 13.2926 18.2647C14.5556 18.2848 16.0472 18.4673 17.1197 18.625Z" fill="#FFE1CF"/>
</svg>
