<svg width="75" height="75" viewBox="0 0 75 75" fill="none" xmlns="http://www.w3.org/2000/svg">
<g filter="url(#filter0_d)">
<path d="M62.8879 54.2566C63.5238 57.9854 60.8634 61.3466 57.6494 60.8924C52.5579 60.1786 45.4766 59.3524 39.4811 59.2615C33.4725 59.3524 26.3869 60.1786 21.3128 60.8924C18.0987 61.3249 15.4383 57.9854 16.0742 54.2566C17.4022 46.5091 18.6437 34.8727 15.6416 28.8469C12.3021 22.1852 2.2317 10.3801 38.4039 9.9389H39.4551H39.4811H40.5279C44.2048 9.98216 47.4016 10.1465 50.1787 10.4061C50.1898 10.407 50.2006 10.4104 50.2104 10.4159C50.2201 10.4213 50.2285 10.4288 50.2351 10.4379C50.2416 10.4469 50.2462 10.4572 50.2484 10.4682C50.2506 10.4791 50.2505 10.4904 50.2479 10.5013C49.8427 12.566 49.8573 14.6911 50.2908 16.7501C50.7243 18.809 51.5678 20.7596 52.7711 22.4857C53.9744 24.2117 55.5129 25.6779 57.2948 26.7968C59.0768 27.9157 61.0657 28.6644 63.1431 28.9983C63.1551 29.0006 63.1665 29.0055 63.1764 29.0128C63.1863 29.02 63.1944 29.0293 63.2002 29.0401C63.206 29.0509 63.2093 29.0628 63.2099 29.0751C63.2105 29.0873 63.2084 29.0995 63.2037 29.1108C60.3616 35.2231 61.5815 46.6086 62.8879 54.2566Z" fill="#FFE168"/>
<path d="M62.8879 54.2566C63.5238 57.9854 60.8634 61.3466 57.6494 60.8924C52.5579 60.1786 45.4766 59.3524 39.4811 59.2615C33.4725 59.3524 26.3869 60.1786 21.3128 60.8924C18.0987 61.3249 15.4383 57.9854 16.0742 54.2566C17.4022 46.5091 18.6437 34.8727 15.6416 28.8469C12.3021 22.1852 2.2317 10.3801 38.4039 9.9389H39.4551H39.4811H40.5279C44.2048 9.98216 47.4016 10.1465 50.1787 10.4061C50.1898 10.407 50.2006 10.4104 50.2104 10.4159C50.2201 10.4213 50.2285 10.4288 50.2351 10.4379C50.2416 10.4469 50.2462 10.4572 50.2484 10.4682C50.2506 10.4791 50.2505 10.4904 50.2479 10.5013C49.8427 12.566 49.8573 14.6911 50.2908 16.7501C50.7243 18.809 51.5678 20.7596 52.7711 22.4857C53.9744 24.2117 55.5129 25.6779 57.2948 26.7968C59.0768 27.9157 61.0657 28.6644 63.1431 28.9983C63.1551 29.0006 63.1665 29.0055 63.1764 29.0128C63.1863 29.02 63.1944 29.0293 63.2002 29.0401C63.206 29.0509 63.2093 29.0628 63.2099 29.0751C63.2105 29.0873 63.2084 29.0995 63.2037 29.1108C60.3616 35.2231 61.5815 46.6086 62.8879 54.2566Z" stroke="#CE6221" stroke-width="3"/>
</g>
<g filter="url(#filter1_d)">
<path fill-rule="evenodd" clip-rule="evenodd" d="M42.3341 14.2938C41.7102 14.275 41.0681 14.2607 40.4071 14.2511L20.0727 47.8209C19.9027 49.0955 19.7126 50.3139 19.5204 51.4353C18.9868 54.5643 21.2193 57.3667 23.9163 57.0037C28.1743 56.4047 34.1202 55.7114 39.1622 55.6352C44.1933 55.7114 50.1356 56.4047 54.4081 57.0037C57.1051 57.3848 59.3376 54.5643 58.804 51.4353C57.7077 45.0175 56.6841 35.4635 59.0689 30.3343C59.0729 30.3248 59.0747 30.3146 59.0742 30.3043C59.0737 30.2941 59.0709 30.284 59.066 30.275C59.0612 30.266 59.0543 30.2581 59.046 30.252C59.0378 30.246 59.0282 30.2418 59.0181 30.2399C57.2749 29.9597 55.6058 29.3314 54.1105 28.3925C52.6152 27.4536 51.3242 26.2233 50.3145 24.7749C49.3047 23.3265 48.5969 21.6896 48.2331 19.9618C47.8694 18.2341 47.8571 16.4508 48.1972 14.7182C48.1993 14.7091 48.1994 14.6996 48.1976 14.6904C48.1957 14.6812 48.1919 14.6726 48.1864 14.665C48.1809 14.6574 48.1738 14.6511 48.1656 14.6465C48.1575 14.6419 48.1484 14.6391 48.1391 14.6383C47.6687 14.5944 47.1839 14.5536 46.6843 14.5164L24.5324 51.0865L22.1215 48.2227L42.3341 14.2938ZM33.8932 14.3764C34.5475 14.344 35.2241 14.317 35.9237 14.2956L20.7086 39.8357C20.7252 38.6287 20.6963 37.4427 20.6086 36.3076L33.8932 14.3764ZM22.0019 16.1182C15.3253 18.2211 15.272 21.7749 16.62 25.1522L22.0019 16.1182ZM18.5814 29.0261C18.788 29.4028 18.9836 29.7661 19.1574 30.1129C19.2991 30.3972 19.4295 30.6965 19.5493 31.0092L29.2458 14.7326C28.4811 14.8155 27.757 14.9079 27.0718 15.0093L18.5814 29.0261Z" fill="#FFDD54"/>
</g>
<defs>
<filter id="filter0_d" x="0.290283" y="0.438904" width="74.4199" height="73.9953" filterUnits="userSpaceOnUse" color-interpolation-filters="sRGB">
<feFlood flood-opacity="0" result="BackgroundImageFix"/>
<feColorMatrix in="SourceAlpha" type="matrix" values="0 0 0 0 0 0 0 0 0 0 0 0 0 0 0 0 0 0 127 0"/>
<feOffset dy="2"/>
<feGaussianBlur stdDeviation="5"/>
<feColorMatrix type="matrix" values="0 0 0 0 1 0 0 0 0 0.881389 0 0 0 0 0.406944 0 0 0 0.49 0"/>
<feBlend mode="normal" in2="BackgroundImageFix" result="effect1_dropShadow"/>
<feBlend mode="normal" in="SourceGraphic" in2="effect1_dropShadow" result="shape"/>
</filter>
<filter id="filter1_d" x="5.92578" y="6.2511" width="63.1485" height="62.7873" filterUnits="userSpaceOnUse" color-interpolation-filters="sRGB">
<feFlood flood-opacity="0" result="BackgroundImageFix"/>
<feColorMatrix in="SourceAlpha" type="matrix" values="0 0 0 0 0 0 0 0 0 0 0 0 0 0 0 0 0 0 127 0"/>
<feOffset dy="2"/>
<feGaussianBlur stdDeviation="5"/>
<feColorMatrix type="matrix" values="0 0 0 0 1 0 0 0 0 0.881389 0 0 0 0 0.406944 0 0 0 0.49 0"/>
<feBlend mode="normal" in2="BackgroundImageFix" result="effect1_dropShadow"/>
<feBlend mode="normal" in="SourceGraphic" in2="effect1_dropShadow" result="shape"/>
</filter>
</defs>
</svg>
