<svg width="23" height="23" viewBox="0 0 23 23" fill="none" xmlns="http://www.w3.org/2000/svg">
<path d="M1.51235 4.53411H5.20546C5.33235 5.25846 5.7106 5.91486 6.27366 6.38786C6.83673 6.86086 7.54855 7.12016 8.28392 7.12016C9.0193 7.12016 9.73112 6.86086 10.2942 6.38786C10.8572 5.91486 11.2355 5.25846 11.3624 4.53411H22.348C22.4861 4.53411 22.6186 4.47923 22.7163 4.38155C22.814 4.28386 22.8689 4.15137 22.8689 4.01322C22.8689 3.87507 22.814 3.74258 22.7163 3.6449C22.6186 3.54721 22.4861 3.49233 22.348 3.49233H11.3624C11.2355 2.76799 10.8572 2.11159 10.2942 1.63859C9.73112 1.16559 9.0193 0.906281 8.28392 0.906281C7.54855 0.906281 6.83673 1.16559 6.27366 1.63859C5.7106 2.11159 5.33235 2.76799 5.20546 3.49233H1.51235C1.3742 3.49233 1.24171 3.54721 1.14402 3.6449C1.04633 3.74258 0.991455 3.87507 0.991455 4.01322C0.991455 4.15137 1.04633 4.28386 1.14402 4.38155C1.24171 4.47923 1.3742 4.53411 1.51235 4.53411ZM8.28392 1.92966C8.69601 1.92966 9.09885 2.05186 9.44149 2.2808C9.78413 2.50975 10.0512 2.83516 10.2089 3.21588C10.3666 3.5966 10.4078 4.01553 10.3274 4.41971C10.2471 4.82388 10.0486 5.19513 9.75722 5.48652C9.46583 5.77792 9.09458 5.97636 8.69041 6.05675C8.28623 6.13714 7.8673 6.09588 7.48658 5.93818C7.10586 5.78048 6.78045 5.51343 6.5515 5.17079C6.32256 4.82815 6.20036 4.42531 6.20036 4.01322C6.20036 3.46063 6.41988 2.93067 6.81062 2.53992C7.20136 2.14918 7.73133 1.92966 8.28392 1.92966ZM22.348 11.3057H18.6549C18.528 10.5813 18.1497 9.92495 17.5867 9.45195C17.0236 8.97894 16.3118 8.71964 15.5764 8.71964C14.841 8.71964 14.1292 8.97894 13.5661 9.45195C13.0031 9.92495 12.6248 10.5813 12.4979 11.3057H1.51235C1.3742 11.3057 1.24171 11.3606 1.14402 11.4583C1.04633 11.5559 0.991455 11.6884 0.991455 11.8266C0.991455 11.9647 1.04633 12.0972 1.14402 12.1949C1.24171 12.2926 1.3742 12.3475 1.51235 12.3475H12.4979C12.6248 13.0718 13.0031 13.7282 13.5661 14.2012C14.1292 14.6742 14.841 14.9335 15.5764 14.9335C16.3118 14.9335 17.0236 14.6742 17.5867 14.2012C18.1497 13.7282 18.528 13.0718 18.6549 12.3475H22.348C22.4861 12.3475 22.6186 12.2926 22.7163 12.1949C22.814 12.0972 22.8689 11.9647 22.8689 11.8266C22.8689 11.6884 22.814 11.5559 22.7163 11.4583C22.6186 11.3606 22.4861 11.3057 22.348 11.3057ZM15.5764 13.9101C15.1643 13.9101 14.7615 13.7879 14.4188 13.559C14.0762 13.3301 13.8091 13.0046 13.6514 12.6239C13.4937 12.2432 13.4525 11.8243 13.5329 11.4201C13.6133 11.0159 13.8117 10.6447 14.1031 10.3533C14.3945 10.0619 14.7657 9.86345 15.1699 9.78305C15.5741 9.70266 15.993 9.74392 16.3737 9.90162C16.7545 10.0593 17.0799 10.3264 17.3088 10.669C17.5378 11.0117 17.66 11.4145 17.66 11.8266C17.66 12.3792 17.4404 12.9091 17.0497 13.2999C16.6589 13.6906 16.129 13.9101 15.5764 13.9101ZM22.348 19.119H11.3624C11.2355 18.3947 10.8572 17.7383 10.2942 17.2653C9.73112 16.7923 9.0193 16.533 8.28392 16.533C7.54855 16.533 6.83673 16.7923 6.27366 17.2653C5.7106 17.7383 5.33235 18.3947 5.20546 19.119H1.51235C1.3742 19.119 1.24171 19.1739 1.14402 19.2716C1.04633 19.3693 0.991455 19.5018 0.991455 19.6399C0.991455 19.7781 1.04633 19.9106 1.14402 20.0083C1.24171 20.106 1.3742 20.1608 1.51235 20.1608H5.20546C5.33235 20.8852 5.7106 21.5416 6.27366 22.0146C6.83673 22.4876 7.54855 22.7469 8.28392 22.7469C9.0193 22.7469 9.73112 22.4876 10.2942 22.0146C10.8572 21.5416 11.2355 20.8852 11.3624 20.1608H22.348C22.4861 20.1608 22.6186 20.106 22.7163 20.0083C22.814 19.9106 22.8689 19.7781 22.8689 19.6399C22.8689 19.5018 22.814 19.3693 22.7163 19.2716C22.6186 19.1739 22.4861 19.119 22.348 19.119ZM8.28392 21.7235C7.87183 21.7235 7.469 21.6013 7.12636 21.3724C6.78372 21.1434 6.51666 20.818 6.35896 20.4373C6.20126 20.0566 6.16 19.6376 6.2404 19.2335C6.32079 18.8293 6.51923 18.458 6.81062 18.1666C7.10201 17.8752 7.47327 17.6768 7.87744 17.5964C8.28161 17.516 8.70055 17.5573 9.08127 17.715C9.46199 17.8727 9.7874 18.1397 10.0163 18.4824C10.2453 18.825 10.3675 19.2278 10.3675 19.6399C10.3675 20.1925 10.148 20.7225 9.75722 21.1132C9.36648 21.504 8.83652 21.7235 8.28392 21.7235Z" fill="#2EA6FF"/>
</svg>
