<svg width="23" height="24" viewBox="0 0 23 24" fill="none" xmlns="http://www.w3.org/2000/svg">
<path d="M6.39258 7.9133L6.76758 7.1633H14.5541L14.1791 7.9133H6.39258Z" fill="#FFE1CF"/>
<path fill-rule="evenodd" clip-rule="evenodd" d="M0.160889 23.2883H18.1609V10.1633H15.0465C14.8391 10.1633 14.6715 9.99567 14.6715 9.7883C14.6715 9.58093 14.8391 9.4133 15.0465 9.4133H18.3041L20.1791 5.6633H2.26758L0.392578 9.4133H13.6609C13.8683 9.4133 14.0359 9.58093 14.0359 9.7883C14.0359 9.99567 13.8683 10.1633 13.6609 10.1633H0.160889V23.2883ZM14.7465 8.45593L15.4965 6.95593C15.5547 6.83966 15.5486 6.70166 15.48 6.59106C15.4114 6.48044 15.291 6.4133 15.1609 6.4133H6.53589C6.3938 6.4133 6.26404 6.49356 6.20032 6.62067L5.45032 8.12067C5.39209 8.23694 5.39819 8.37494 5.4668 8.48553C5.5354 8.59616 5.65576 8.6633 5.78589 8.6633H14.4109C14.553 8.6633 14.6827 8.58304 14.7465 8.45593ZM11.1102 12.2072C11.413 14.5648 12.3937 14.6404 13.0111 14.688C13.2114 14.7035 13.3735 14.7159 13.4618 14.8024C13.7734 15.1078 14.1034 17.7953 14.3007 19.4032C14.3315 19.6546 14.3593 19.8797 14.3831 20.0651C14.4906 20.9033 13.5413 20.6802 12.4279 20.4186C11.7202 20.2524 10.9463 20.0706 10.3354 20.1358C9.65857 20.208 8.76367 20.6212 8.00037 20.9735C7.07349 21.4015 6.3407 21.7398 6.42847 21.269C6.5885 20.4105 6.69897 19.0696 6.41077 17.71C6.30359 17.205 6.12976 16.7357 5.95911 16.2752C5.66016 15.4687 5.37122 14.6889 5.46814 13.7901C5.65759 12.0331 8.86108 12.1357 10.7871 12.1973L10.9213 12.2015L11.1102 12.2072Z" fill="#FFE1CF"/>
<path d="M20.4109 10.1633H18.9109V22.1925L20.4109 19.4427V10.1633Z" fill="#FFE1CF"/>
<path d="M22.4044 23.2883L20.7859 20.3213L19.1677 23.2883H22.4044Z" fill="#FFE1CF"/>
<path d="M21.1609 19.4431L22.6609 22.1929V10.1633H21.1609V19.4431Z" fill="#FFE1CF"/>
<path d="M20.7859 6.1268L19.1427 9.4133H22.4291L20.7859 6.1268Z" fill="#FFE1CF"/>
<path d="M6.53589 3.39456C6.53589 2.78442 7.03198 2.2883 7.64209 2.2883H15.1797C15.7898 2.2883 16.2859 2.78442 16.2859 3.39456V3.4133H6.53589V3.39456Z" fill="#FFE1CF"/>
<path fill-rule="evenodd" clip-rule="evenodd" d="M18.2134 0.7883H4.6084C3.39673 0.7883 2.41089 1.96619 2.41089 3.4133V4.9133H20.4109V3.4133C20.4109 1.96619 19.425 0.7883 18.2134 0.7883ZM6.16089 4.1633H16.6609C16.8683 4.1633 17.0359 3.99567 17.0359 3.7883V3.39456C17.0359 2.37119 16.203 1.5383 15.1797 1.5383H7.64209C6.61877 1.5383 5.78589 2.37119 5.78589 3.39456V3.7883C5.78589 3.99567 5.95349 4.1633 6.16089 4.1633Z" fill="#FFE1CF"/>
</svg>
