<svg width="34" height="33" viewBox="0 0 34 33" fill="none" xmlns="http://www.w3.org/2000/svg">
<path d="M18.8871 6.5214C18.3333 6.1528 17.6825 5.95689 17.0173 5.95849C16.1289 5.96063 15.2776 6.31447 14.6494 6.94264C14.0212 7.57081 13.6674 8.42217 13.6652 9.31053C13.6636 9.97579 13.8596 10.6266 14.2282 11.1804C14.5968 11.7342 15.1215 12.1661 15.7358 12.4214C16.3501 12.6768 17.0264 12.744 17.6789 12.6146C18.3315 12.4852 18.9309 12.165 19.4013 11.6946C19.8718 11.2242 20.1919 10.6247 20.3213 9.97216C20.4507 9.31961 20.3835 8.64333 20.1282 8.02901C19.8729 7.4147 19.4409 6.89 18.8871 6.5214Z" fill="#FFDD54"/>
<path fill-rule="evenodd" clip-rule="evenodd" d="M16.9302 32.5527C25.8069 32.5527 33.0028 25.3568 33.0028 16.4802C33.0028 7.60353 25.8069 0.407593 16.9302 0.407593C8.0536 0.407593 0.857666 7.60353 0.857666 16.4802C0.857666 25.3568 8.0536 32.5527 16.9302 32.5527ZM19.7859 13.4548C18.966 14.0009 18.0025 14.2916 17.0173 14.29C15.698 14.2879 14.4336 13.7623 13.5015 12.8287C12.5694 11.8951 12.0459 10.6298 12.0459 9.31053C12.0459 8.32534 12.3381 7.36228 12.8857 6.54324C13.4332 5.72419 14.2113 5.08597 15.1217 4.70932C16.032 4.33268 17.0337 4.23454 17.9998 4.42733C18.966 4.62012 19.8532 5.09518 20.5493 5.79238C21.2453 6.48958 21.7189 7.3776 21.9102 8.34405C22.1014 9.31051 22.0016 10.312 21.6235 11.2217C21.2454 12.1314 20.6059 12.9086 19.7859 13.4548ZM17.0173 28.6293C20.8389 28.6293 25.2597 27.7386 26.2313 25.2368C26.2908 25.0413 26.2741 24.8305 26.1846 24.6468C26.0951 24.4631 25.9395 24.32 25.749 24.2462C25.5584 24.1724 25.347 24.1735 25.1571 24.2491C24.9673 24.3246 24.813 24.4692 24.7254 24.6538C24.191 26.0221 20.9523 27.0099 17.0173 27.0099C13.0823 27.0099 9.84359 26.0221 9.30921 24.6538C9.05011 23.9899 9.26873 22.5568 10.3537 20.9779C11.0818 19.8689 12.069 18.954 13.2301 18.3121C14.3911 17.6702 15.6909 17.3208 17.0173 17.2939C18.5791 17.3458 20.0955 17.8326 21.3958 18.6994C22.696 19.5662 23.7286 20.7788 24.3772 22.2005C24.4136 22.3068 24.4717 22.4044 24.5479 22.487C24.6241 22.5697 24.7166 22.6355 24.8197 22.6804C24.9227 22.7253 25.0339 22.7483 25.1463 22.7479C25.2587 22.7475 25.3697 22.7236 25.4724 22.6779C25.5751 22.6322 25.6671 22.5657 25.7427 22.4825C25.8182 22.3993 25.8756 22.3012 25.9112 22.1946C25.9468 22.088 25.9598 21.9752 25.9494 21.8633C25.939 21.7514 25.9054 21.6429 25.8508 21.5447C25.0857 19.8299 23.8493 18.3677 22.2854 17.3285C20.7215 16.2892 18.8945 15.7157 17.0173 15.6745C15.4267 15.7015 13.8665 16.1152 12.4714 16.8797C11.0763 17.6442 9.88824 18.7368 9.00963 20.063C7.74654 21.9171 7.28503 23.9008 7.80322 25.2368C8.77483 27.7386 13.1956 28.6293 17.0173 28.6293Z" fill="#FFDD54"/>
</svg>
