<svg width="28" height="28" viewBox="0 0 28 28" fill="none" xmlns="http://www.w3.org/2000/svg">
<path d="M12.3822 17.2031C11.783 17.2031 11.1923 16.9711 10.7451 16.5238C9.99826 15.777 9.85059 14.6167 10.3907 13.7095L16.7956 2.91652C17.2091 2.22033 17.9095 1.76043 18.7112 1.65917C19.5128 1.5579 20.3061 1.82794 20.8757 2.40177L24.8671 6.39324C25.441 6.96707 25.711 7.75608 25.6097 8.55775C25.5085 9.36364 25.0528 10.0598 24.3524 10.4733L13.5594 16.8782C13.1923 17.0934 12.7872 17.2031 12.3822 17.2031ZM19.036 2.92074C18.9812 2.92074 18.9263 2.92496 18.8673 2.92918C18.458 2.97981 18.1036 3.21187 17.8968 3.5663L11.4961 14.3635C11.2556 14.7686 11.3189 15.2833 11.6522 15.6167C11.9856 15.95 12.5003 16.0133 12.9054 15.7728L23.6984 9.36786C24.0528 9.15689 24.2849 8.80247 24.3355 8.39742C24.3861 7.98814 24.2511 7.58731 23.96 7.29617L19.9685 3.3047C19.7196 3.05998 19.3862 2.92074 19.036 2.92074Z" fill="#CE6221"/>
<path d="M25.0359 21.7389C24.7828 21.7389 24.5296 21.6925 24.2807 21.6039L12.4834 17.3128C12.3062 17.2453 12.167 17.1736 12.0362 17.085C11.7451 16.8825 11.6733 16.4858 11.8716 16.1905C12.0742 15.8994 12.475 15.8276 12.7661 16.0302C12.8083 16.0597 12.859 16.085 12.9307 16.1103L24.7152 20.3972C25.0823 20.5322 25.365 20.4098 25.5338 20.2875C25.9093 20.0132 26.1245 19.4562 26.095 18.8402L25.7743 12.0345C25.7237 10.9881 25.0401 10.237 24.4283 10.1906C24.0739 10.1653 23.8081 9.8573 23.8376 9.50288C23.8629 9.14845 24.171 8.89108 24.5254 8.91217C25.8671 9.01344 26.981 10.3594 27.057 11.9754L27.3776 18.7854C27.424 19.8444 27.019 20.7896 26.2933 21.3254C25.9177 21.5954 25.4832 21.7389 25.0359 21.7389Z" fill="#CE6221"/>
<path d="M13.5172 16.8023C13.3611 16.8023 13.2007 16.7432 13.0784 16.6293C12.821 16.3846 12.8083 15.9837 13.0488 15.7264L13.0531 15.7222C13.2978 15.4648 13.7028 15.4521 13.9602 15.6968C14.2176 15.9416 14.2302 16.3466 13.9855 16.604C13.8589 16.7348 13.6902 16.8023 13.5172 16.8023ZM10.7198 15.4099C10.5215 15.4099 10.3232 15.3171 10.1966 15.1399C10.1248 15.0386 10.0911 14.9458 10.07 14.8867L5.78738 3.11061C5.53422 2.41864 5.63971 1.68448 6.06586 1.10222C6.60171 0.376492 7.55106 -0.0370008 8.61011 0.0178503L15.4201 0.338518C16.9095 0.410247 18.1753 1.35115 18.4327 2.57898C18.5044 2.92496 18.285 3.26673 17.939 3.33845C17.593 3.41018 17.2513 3.19078 17.1795 2.84479C17.0614 2.2794 16.3483 1.6676 15.361 1.62119L8.55104 1.2963C7.9308 1.27099 7.37807 1.48617 7.09959 1.86169C6.97723 2.03046 6.85909 2.30894 6.98989 2.6718L11.2725 14.4521C11.4328 14.7348 11.3569 15.0977 11.0868 15.2918C10.9771 15.3719 10.8463 15.4099 10.7198 15.4099ZM19.4622 27.013C18.8841 27.013 18.15 26.8021 17.3905 26.0342C16.7112 25.3506 16.2555 24.4055 16.0783 23.3127C15.6564 20.6841 15.0024 18.663 14.3273 17.9035C14.091 17.6377 14.1163 17.2327 14.3821 16.9964C14.648 16.7601 15.053 16.7854 15.2893 17.0512C16.3821 18.2833 17.0108 21.0216 17.3441 23.106C17.4791 23.9372 17.8124 24.6376 18.3019 25.1312C18.7702 25.608 19.2175 25.7979 19.6689 25.7093C20.8124 25.4899 22.2005 23.6292 23.479 20.5997C23.6182 20.2748 23.9937 20.1187 24.3186 20.2579C24.6435 20.3972 24.7996 20.7727 24.6604 21.0976C23.1499 24.6798 21.555 26.6544 19.9094 26.9709C19.7786 26.9962 19.6267 27.013 19.4622 27.013Z" fill="#CE6221"/>
<path d="M9.91388 13.2243C9.76198 13.2243 9.61009 13.1695 9.48773 13.064C8.71981 12.3847 6.74939 11.7476 4.07856 11.313C2.98576 11.1358 2.04485 10.6843 1.3571 10.0008C0.36978 9.03031 0.30649 8.09363 0.420411 7.47761C0.73686 5.83629 2.7115 4.23717 6.2937 2.72665C6.61859 2.58741 6.99833 2.74353 7.13335 3.06842C7.27258 3.3933 7.11647 3.77304 6.79158 3.90806C3.76211 5.1823 1.90139 6.57045 1.68199 7.71811C1.59338 8.16957 1.78325 8.61682 2.26003 9.08517C2.75791 9.57882 3.45832 9.90793 4.28531 10.043C6.37387 10.3805 9.11643 11.0134 10.3442 12.102C10.6101 12.3383 10.6354 12.7433 10.3991 13.0091C10.2683 13.1526 10.0911 13.2243 9.91388 13.2243ZM21.5845 7.66747C21.2301 7.66747 20.9432 7.38056 20.9432 7.02614C20.9432 6.49872 20.5128 6.06835 19.9854 6.06835C19.631 6.06835 19.3441 5.78144 19.3441 5.42702C19.3441 5.07259 19.631 4.78568 19.9854 4.78568C21.2217 4.78568 22.2258 5.78988 22.2258 7.02614C22.2258 7.38056 21.9389 7.66747 21.5845 7.66747ZM24.365 17.5322C24.2131 17.5322 24.057 17.4774 23.9347 17.3677C23.6731 17.1314 23.6478 16.7264 23.8883 16.4605C24.2427 16.0681 24.2089 15.4606 23.8165 15.1061C23.5549 14.8698 23.5296 14.4648 23.7701 14.199C24.0064 13.9374 24.4115 13.9121 24.6773 14.1526C25.1245 14.5534 25.3861 15.1019 25.4199 15.7011C25.4536 16.3002 25.2469 16.874 24.8503 17.3213C24.7152 17.4605 24.538 17.5322 24.365 17.5322ZM12.8083 3.72241C12.6227 3.72241 12.4412 3.64224 12.3147 3.49035C12.1501 3.29204 11.9181 3.16968 11.6649 3.14858C11.4075 3.12327 11.1628 3.20344 10.9645 3.36799C10.6902 3.59583 10.2852 3.55786 10.0616 3.2836C9.83371 3.00935 9.87168 2.60851 10.1459 2.38067C10.6058 1.99671 11.1881 1.8195 11.783 1.87435C12.378 1.9292 12.918 2.2119 13.302 2.67602C13.5298 2.95028 13.4919 3.35111 13.2176 3.57895C13.0995 3.676 12.9518 3.72241 12.8083 3.72241Z" fill="#CE6221"/>
</svg>
