<svg width="30" height="24" viewBox="0 0 30 24" fill="none" xmlns="http://www.w3.org/2000/svg">
<path d="M8.99538 5.87661C8.58772 5.46893 8.08481 5.31087 7.87211 5.52357C7.65941 5.73626 7.81745 6.23917 8.22511 6.64684C8.63277 7.05452 9.13568 7.21258 9.34838 6.99988C9.56108 6.78719 9.40304 6.28428 8.99538 5.87661Z" fill="#CE6221"/>
<path d="M10.3297 3.60986C9.92207 4.01753 9.76401 4.52042 9.97672 4.73313C10.1894 4.94584 10.6923 4.78778 11.1 4.38013C11.5077 3.97246 11.6657 3.46957 11.453 3.25684C11.2403 3.04414 10.7374 3.20219 10.3297 3.60986Z" fill="#CE6221"/>
<path d="M15.4198 3.4684C15.2071 3.25569 14.7042 3.41374 14.2965 3.8214C13.8888 4.22906 13.7308 4.73196 13.9435 4.94466C14.1562 5.15737 14.6591 4.99932 15.0668 4.59166C15.4744 4.184 15.6325 3.6811 15.4198 3.4684Z" fill="#CE6221"/>
<path d="M19.143 3.46871C18.9303 3.256 18.4274 3.41403 18.0197 3.82168C17.6121 4.22934 17.454 4.73224 17.6667 4.94495C17.8794 5.15766 18.3823 4.99963 18.79 4.59197C19.1977 4.18432 19.3557 3.68142 19.143 3.46871Z" fill="#CE6221"/>
<path d="M16.732 5.87658C16.3244 5.4689 15.8215 5.31085 15.6087 5.52356C15.396 5.73627 15.5541 6.23919 15.9617 6.64686C16.3694 7.05454 16.8723 7.21259 17.085 6.99988C17.2977 6.78717 17.1397 6.28425 16.732 5.87658Z" fill="#CE6221"/>
<path d="M21.5353 6.0115C21.1277 5.60383 20.6248 5.44578 20.412 5.65849C20.1993 5.8712 20.3574 6.37412 20.765 6.78179C21.1727 7.18947 21.6756 7.34752 21.8883 7.13481C22.101 6.9221 21.943 6.41918 21.5353 6.0115Z" fill="#CE6221"/>
<path d="M12.7657 5.87661C12.358 5.46893 11.8551 5.31087 11.6424 5.52357C11.4297 5.73626 11.5877 6.23917 11.9954 6.64684C12.4031 7.05452 12.906 7.21258 13.1187 6.99989C13.3314 6.78719 13.1733 6.28428 12.7657 5.87661Z" fill="#CE6221"/>
<path d="M27.4643 14.7917V13.5748C28.5622 13.344 29.3801 12.4825 29.3801 11.4578C29.3801 10.4283 28.5545 9.56346 27.4488 9.33759C27.3757 8.16705 27.041 7.03229 26.4507 5.95767C25.8078 4.78737 24.8909 3.73887 23.7252 2.84129C22.5702 1.95191 21.2276 1.25444 19.7348 0.76825C18.196 0.267098 16.5627 0.0130005 14.8801 0.0130005C13.1976 0.0130005 11.5642 0.267098 10.0255 0.76825C8.53266 1.25444 7.19007 1.95191 6.03505 2.84129C4.8694 3.73887 3.9524 4.78737 3.30955 5.95767C2.71928 7.03227 2.38446 8.16707 2.31133 9.3376C1.20574 9.56351 0.380127 10.4284 0.380127 11.4578C0.380127 12.4946 1.21755 13.3644 2.335 13.5827V14.7837C1.21755 15.0021 0.380127 15.8719 0.380127 16.9086C0.380127 17.9454 1.21755 18.8152 2.335 19.0335V20.9238C2.335 21.3497 2.45723 21.7599 2.6983 22.143C2.91786 22.4919 3.22638 22.802 3.61528 23.0646C4.37472 23.5773 5.37048 23.8597 6.41914 23.8597H23.3802C24.4288 23.8597 25.4246 23.5773 26.184 23.0646C26.5729 22.802 26.8814 22.4919 27.101 22.143C27.3421 21.7599 27.4643 21.3497 27.4643 20.9238V19.0256C28.5622 18.7948 29.3801 17.9333 29.3801 16.9086C29.3801 15.884 28.5622 15.0225 27.4643 14.7917ZM3.43341 13.6356H26.3659V14.7308H3.43341V13.6356ZM14.8801 1.11141C20.9703 1.11141 25.9686 4.72799 26.3434 9.28002H3.4169C3.7917 4.728 8.79 1.11141 14.8801 1.11141ZM1.47854 11.4578C1.47854 10.8727 2.12226 10.3784 2.8842 10.3784H26.876C27.638 10.3784 28.2817 10.8727 28.2817 11.4578C28.2817 12.0429 27.638 12.5372 26.876 12.5372H2.8842C2.12226 12.5372 1.47854 12.0429 1.47854 11.4578ZM25.5694 22.1542C24.998 22.54 24.2001 22.7612 23.3802 22.7612H6.41914C5.59926 22.7612 4.80132 22.54 4.2299 22.1542C3.71627 21.8074 3.43341 21.3705 3.43341 20.9238V19.0864H5.81663L6.72025 20.9931C6.81382 21.1905 7.0106 21.3072 7.21678 21.3072C7.28742 21.3072 7.35916 21.2935 7.42823 21.2646L12.6427 19.0864H19.245C19.2486 19.1433 19.2533 19.2024 19.2595 19.2631C19.3216 19.8724 19.4966 20.3361 19.7797 20.6415C20.028 20.9092 20.3539 21.0507 20.7222 21.0507C21.0983 21.0507 21.4321 20.9071 21.6875 20.6355C22.0799 20.2181 22.2078 19.563 22.246 19.0864H23.3138C23.3313 19.3163 23.3615 19.595 23.4135 19.8757C23.4909 20.2938 23.6027 20.6364 23.7458 20.8939C24.0694 21.4764 24.5178 21.5634 24.7563 21.5634C25.0655 21.5634 25.3448 21.4399 25.5641 21.2063C25.8792 20.8706 26.0635 20.3165 26.1276 19.5124C26.1396 19.3614 26.146 19.2168 26.149 19.0864H26.3659V20.9238C26.3659 21.3705 26.083 21.8074 25.5694 22.1542ZM7.03217 19.0864H9.79295L7.4884 20.0491L7.03217 19.0864ZM26.876 17.988H25.5928C25.4411 17.988 25.2961 18.0508 25.1923 18.1614C25.0885 18.272 25.0351 18.4207 25.0447 18.572C25.045 18.5766 25.0728 19.029 25.0236 19.5268C24.9643 20.1262 24.8314 20.3812 24.7676 20.4511C24.7113 20.3855 24.5639 20.1585 24.4653 19.5073C24.3895 19.0066 24.388 18.5415 24.388 18.5372C24.388 18.2339 24.1421 17.988 23.8388 17.988H21.7071C21.5555 17.988 21.4107 18.0507 21.3069 18.1611C21.2031 18.2715 21.1496 18.4199 21.1589 18.5711C21.1828 18.9582 21.113 19.6429 20.8872 19.8831C20.8398 19.9335 20.7951 19.9523 20.7222 19.9523C20.6599 19.9523 20.6254 19.9378 20.5856 19.895C20.3694 19.6628 20.3107 18.9716 20.3389 18.5786C20.3504 18.4262 20.2979 18.2759 20.194 18.1638C20.0901 18.0517 19.9441 17.988 19.7913 17.988H12.5392C12.5356 17.988 12.532 17.988 12.5283 17.988H6.17023C6.16754 17.988 6.16484 17.988 6.16215 17.988H2.8842C2.12226 17.988 1.47854 17.4937 1.47854 16.9086C1.47854 16.3235 2.12226 15.8292 2.8842 15.8292H26.876C27.638 15.8292 28.2817 16.3235 28.2817 16.9086C28.2817 17.4937 27.638 17.988 26.876 17.988Z" fill="#CE6221"/>
</svg>
