<svg width="27" height="22" viewBox="0 0 27 22" fill="none" xmlns="http://www.w3.org/2000/svg">
<path fill-rule="evenodd" clip-rule="evenodd" d="M12.0197 11.4938C12.2309 11.7256 12.5083 11.8413 12.7856 11.8413C12.9279 11.8416 13.0689 11.811 13.2003 11.7514C13.3318 11.6917 13.4511 11.6042 13.5515 11.4938L19.7341 2.3535C19.8861 2.18786 19.9897 1.97652 20.0318 1.7463C20.0739 1.51609 20.0525 1.27737 19.9705 1.06046C19.8884 0.843551 19.7493 0.658221 19.5709 0.527997C19.3924 0.397772 19.1827 0.328525 18.9682 0.329043C18.6909 0.329043 18.4141 0.444675 18.2023 0.676533L12.0197 9.81682C11.8166 10.0392 11.7025 10.3408 11.7025 10.6553C11.7025 10.9698 11.8166 11.2714 12.0197 11.4938Z" fill="#E4F4FF"/>
<path fill-rule="evenodd" clip-rule="evenodd" d="M17.8734 7.09738H25.7856C26.0729 7.09738 26.3484 7.22233 26.5516 7.44474C26.7548 7.66716 26.8689 7.96881 26.8689 8.28335C26.8689 8.59789 26.7548 8.89955 26.5516 9.12196C26.3484 9.34437 26.0729 9.46933 25.7856 9.46933H24.582L22.5356 19.5501C22.5356 20.0219 22.3644 20.4744 22.0596 20.808C21.7549 21.1416 21.3415 21.329 20.9106 21.329H6.82723C6.39625 21.329 5.98293 21.1416 5.67818 20.808C5.37343 20.4744 5.20223 20.0219 5.20223 19.5501L3.15581 9.46933H1.95223C1.66491 9.46933 1.38936 9.34437 1.1862 9.12196C0.983033 8.89955 0.868896 8.59789 0.868896 8.28335C0.868896 7.96881 0.983033 7.66716 1.1862 7.44474C1.38936 7.22233 1.66491 7.09738 1.95223 7.09738H12.5109L11.1887 9.05186C10.8208 9.48849 10.6172 10.0613 10.6189 10.6553C10.6181 10.9669 10.6738 11.2756 10.7827 11.5635C10.8917 11.8513 11.0518 12.1126 11.2537 12.3323C11.4544 12.5533 11.6931 12.7285 11.956 12.8478C12.219 12.9671 12.5009 13.0281 12.7856 13.0272C13.0702 13.0281 13.3522 12.9672 13.6151 12.8479C13.8781 12.7286 14.1168 12.5533 14.3174 12.3323L14.3743 12.2706L14.4219 12.1994L17.8734 7.09738ZM20.1236 19.1157C20.2815 18.9047 20.3689 18.6393 20.3689 18.3641V14.8062C20.3689 14.7865 20.3685 14.7669 20.3676 14.7474C20.3543 14.4543 20.2421 14.1761 20.0516 13.9676C20.0262 13.9398 19.9997 13.9135 19.9721 13.8888C19.7794 13.7159 19.537 13.6202 19.2856 13.6202C18.9982 13.6202 18.7227 13.7452 18.5195 13.9676C18.3164 14.19 18.2022 14.4917 18.2022 14.8062V18.3641C18.2022 18.6786 18.3164 18.9803 18.5195 19.2027C18.7227 19.4251 18.9982 19.5501 19.2856 19.5501C19.5729 19.5501 19.8484 19.4251 20.0516 19.2027C20.077 19.1749 20.101 19.1459 20.1236 19.1157ZM14.7069 19.1157C14.8648 18.9047 14.9522 18.6393 14.9522 18.3641V14.8062C14.9522 14.7865 14.9518 14.7669 14.9509 14.7474C14.9376 14.4543 14.8254 14.1761 14.6349 13.9676C14.6095 13.9398 14.583 13.9135 14.5555 13.8888C14.3627 13.7159 14.1203 13.6202 13.8689 13.6202C13.5816 13.6202 13.306 13.7452 13.1029 13.9676C12.8997 14.19 12.7856 14.4917 12.7856 14.8062V18.3641C12.7856 18.6786 12.8997 18.9803 13.1029 19.2027C13.306 19.4251 13.5816 19.5501 13.8689 19.5501C14.1562 19.5501 14.4318 19.4251 14.6349 19.2027C14.6603 19.1749 14.6843 19.1459 14.7069 19.1157ZM9.29023 19.1157C9.44818 18.9047 9.53556 18.6393 9.53556 18.3641V14.8062C9.53556 14.7865 9.53512 14.7669 9.53423 14.7474C9.52095 14.4543 9.40873 14.1761 9.21826 13.9676C9.19287 13.9398 9.16634 13.9135 9.1388 13.8888C8.94603 13.7159 8.70363 13.6202 8.45223 13.6202C8.16491 13.6202 7.88936 13.7452 7.6862 13.9676C7.48303 14.19 7.3689 14.4917 7.3689 14.8062V18.3641C7.3689 18.6786 7.48303 18.9803 7.6862 19.2027C7.88936 19.4251 8.16491 19.5501 8.45223 19.5501C8.73955 19.5501 9.0151 19.4251 9.21826 19.2027C9.24366 19.1749 9.26766 19.1459 9.29023 19.1157Z" fill="#E4F4FF"/>
</svg>
