<svg width="54" height="39" viewBox="0 0 54 39" fill="none" xmlns="http://www.w3.org/2000/svg">
<path d="M27.8173 4.67146V15.8981C27.8172 16.1716 27.7085 16.4339 27.5151 16.6273C27.3217 16.8207 27.0594 16.9294 26.7859 16.9295H14.5619C14.2884 16.9294 14.0261 16.8207 13.8327 16.6273C13.6393 16.4339 13.5306 16.1716 13.5305 15.8981V4.67146C13.5305 4.53601 13.5571 4.40188 13.609 4.27673C13.6608 4.15158 13.7367 4.03786 13.8325 3.94208C13.9283 3.8463 14.042 3.77033 14.1672 3.71851C14.2923 3.66669 14.4265 3.64004 14.5619 3.64008H26.7859C26.9214 3.64004 27.0555 3.66669 27.1807 3.71851C27.3058 3.77033 27.4195 3.8463 27.5153 3.94208C27.6111 4.03786 27.6871 4.15158 27.7389 4.27673C27.7907 4.40188 27.8173 4.53601 27.8173 4.67146Z" fill="#CE6221"/>
<path d="M29.2307 16.9297H17.8553C17.0764 16.9297 16.4451 17.561 16.4451 18.3399C16.4451 19.1187 17.0764 19.75 17.8553 19.75H29.2307C30.0095 19.75 30.6409 19.1187 30.6409 18.3399C30.6409 17.561 30.0095 16.9297 29.2307 16.9297Z" fill="#28150E"/>
<path d="M29.6035 16.9297H27.3271C27.6023 16.9297 27.8662 17.0783 28.0607 17.3427C28.2553 17.6072 28.3646 17.9659 28.3646 18.3399C28.3646 18.7139 28.2553 19.0726 28.0607 19.337C27.8662 19.6015 27.6023 19.75 27.3271 19.75H29.6035C29.8787 19.75 30.1426 19.6015 30.3371 19.337C30.5317 19.0726 30.641 18.7139 30.641 18.3399C30.641 17.9659 30.5317 17.6072 30.3371 17.3427C30.1426 17.0783 29.8787 16.9297 29.6035 16.9297Z" fill="#592E1E"/>
<path d="M24.4983 32.9898C24.4983 34.3251 23.9678 35.6057 23.0237 36.5498C22.0795 37.494 20.7989 38.0245 19.4636 38.0245C18.1283 38.0245 16.8478 37.494 15.9036 36.5498C14.9594 35.6057 14.429 34.3251 14.429 32.9898V31.4809L24.4983 31.1699V32.9898Z" fill="#28150E"/>
<path d="M17.5239 32.9898C17.5237 33.2447 17.5738 33.497 17.6712 33.7325C17.7686 33.968 17.9114 34.182 18.0916 34.3623C18.2717 34.5426 18.4856 34.6856 18.721 34.7831C18.9564 34.8807 19.2088 34.9309 19.4636 34.9309C19.7185 34.9309 19.9708 34.8807 20.2062 34.7831C20.4417 34.6856 20.6556 34.5426 20.8357 34.3623C21.0158 34.182 21.1587 33.968 21.2561 33.7325C21.3535 33.497 21.4035 33.2447 21.4033 32.9898V31.6371H17.5239V32.9898Z" fill="white"/>
<path d="M40.4402 32.1563L10.9103 32.5403C9.18192 29.5715 11.7151 23.5187 16.0057 21.0391C18.2599 19.7364 20.5614 19.673 21.8558 19.7497H29.7608C28.1107 22.2619 28.2827 25.4679 30.0809 27.5267C31.5316 29.1877 33.8691 29.9069 35.9581 29.4469C40.9658 28.3442 40.6531 22.5534 39.8249 18.6416C39.7625 18.347 38.7007 14.9556 38.2563 13.6555L41.7511 14.633C42.3078 16.4948 42.9124 18.4012 43.5649 20.352C44.265 22.4388 44.9805 24.4524 45.7113 26.393C43.9543 28.3141 42.1973 30.2352 40.4402 32.1563Z" fill="#FFE168"/>
<path d="M51.1401 29.5445C51.6602 30.0896 52.0514 30.7444 52.2848 31.4608C52.5181 32.1772 52.5877 32.9368 52.4885 33.6836C52.3892 34.4305 52.1237 35.1455 51.7113 35.7761C51.299 36.4066 50.7504 36.9366 50.106 37.327C49.4616 37.7173 48.7378 37.9581 47.988 38.0315C47.2381 38.1049 46.4814 38.0092 45.7735 37.7512C45.0656 37.4933 44.4246 37.0798 43.8978 36.5412C43.371 36.0026 42.9717 35.3527 42.7295 34.6393" fill="#28150E"/>
<path d="M48.4286 31.3184C48.7281 31.4821 48.979 31.7218 49.1561 32.0134C49.3333 32.3051 49.4304 32.6383 49.4377 32.9794C49.4449 33.3205 49.3621 33.6576 49.1975 33.9565C49.0329 34.2554 48.7923 34.5056 48.5002 34.6818C48.208 34.858 47.8745 34.9541 47.5333 34.9603C47.1922 34.9665 46.8554 34.8826 46.557 34.7171C46.2586 34.5515 46.0092 34.3102 45.8339 34.0175C45.6585 33.7248 45.5635 33.391 45.5583 33.0498C45.5744 32.6638 45.6986 32.2901 45.9169 31.9713C46.1352 31.6525 46.4387 31.4015 46.7928 31.247C47.5825 30.9228 48.3076 31.2597 48.4286 31.3184Z" fill="white"/>
<path d="M10.9106 32.5405C12.0947 27.0572 17.213 23.9638 21.3757 25.0303C24.3918 25.8031 26.7718 28.7253 27.3271 32.329L10.9106 32.5405Z" fill="#FFD942"/>
<path d="M43.5658 26.8685L43.8725 26.686C45.2825 25.847 46.968 25.6025 48.5583 26.0062C50.1486 26.4099 51.5133 27.4289 52.3524 28.8388L52.3524 28.8388L41.413 35.3484L41.413 35.3484C40.574 33.9384 40.3295 32.2529 40.7332 30.6626C41.1369 29.0723 42.1558 27.7076 43.5658 26.8685L43.5658 26.8685Z" fill="#FFD942"/>
<path d="M27.8174 4.67146V13.7549C26.634 13.7241 25.4764 13.4028 24.4465 12.8192C23.4165 12.2357 22.5459 11.4078 21.9113 10.4085C21.2767 9.40923 20.8976 8.26922 20.8074 7.08891C20.7171 5.9086 20.9186 4.72421 21.3939 3.64008H26.786C26.9214 3.64004 27.0556 3.66669 27.1807 3.71851C27.3059 3.77033 27.4196 3.8463 27.5154 3.94208C27.6111 4.03786 27.6871 4.15158 27.7389 4.27673C27.7907 4.40188 27.8174 4.53601 27.8174 4.67146Z" fill="#CE6221"/>
<path d="M40.1246 10.0854H42.8439C42.9533 10.0854 43.0583 10.1289 43.1356 10.2062C43.213 10.2836 43.2565 10.3885 43.2565 10.4979V14.2204C43.2565 14.3298 43.213 14.4348 43.1356 14.5122C43.0583 14.5895 42.9533 14.633 42.8439 14.633H40.1246C39.5216 14.633 38.9432 14.3934 38.5168 13.967C38.0904 13.5406 37.8508 12.9622 37.8508 12.3592C37.8508 11.7561 38.0904 11.1778 38.5168 10.7514C38.9432 10.3249 39.5216 10.0854 40.1246 10.0854Z" fill="#FFD942"/>
<circle cx="27.7771" cy="6.68579" r="5.40796" fill="#2EA6FF"/>
<path d="M27.6163 6.39985V3.81218C27.6163 3.62406 27.4638 3.47156 27.2757 3.47156C27.0876 3.47156 26.9351 3.62406 26.9351 3.81218V6.61513C26.9351 6.96651 27.2199 7.25136 27.5713 7.25136H29.6253C29.7726 7.25136 29.892 7.13196 29.892 6.98466C29.892 6.83737 29.7726 6.71796 29.6253 6.71796H27.9344C27.7587 6.71796 27.6163 6.57554 27.6163 6.39985Z" fill="#592E1E"/>
<path d="M42.844 10.0854H41.2969C41.4063 10.0854 41.5112 10.1289 41.5886 10.2062C41.666 10.2836 41.7094 10.3885 41.7094 10.4979V14.2204C41.7094 14.2746 41.6988 14.3282 41.678 14.3783C41.6573 14.4284 41.6269 14.4738 41.5886 14.5121C41.5503 14.5505 41.5048 14.5808 41.4548 14.6016C41.4047 14.6223 41.3511 14.633 41.2969 14.633H42.844C42.8981 14.633 42.9518 14.6223 43.0018 14.6016C43.0519 14.5808 43.0974 14.5505 43.1357 14.5121C43.174 14.4738 43.2044 14.4284 43.2251 14.3783C43.2458 14.3282 43.2565 14.2746 43.2565 14.2204V10.4979C43.2565 10.3885 43.213 10.2836 43.1357 10.2062C43.0583 10.1289 42.9534 10.0854 42.844 10.0854Z" fill="#592E1E"/>
<path d="M4.11787 12.0625H9.98641C10.1916 12.0625 10.3883 11.981 10.5334 11.8359C10.6785 11.6909 10.7599 11.4941 10.7599 11.289C10.7599 11.0838 10.6785 10.887 10.5334 10.742C10.3883 10.5969 10.1916 10.5154 9.98641 10.5154H4.11787C3.91271 10.5154 3.71596 10.5969 3.57089 10.742C3.42582 10.887 3.34432 11.0838 3.34432 11.289C3.34432 11.4941 3.42582 11.6909 3.57089 11.8359C3.71596 11.981 3.91271 12.0625 4.11787 12.0625ZM2.57078 15.1567H9.98641C10.1916 15.1567 10.3883 15.0752 10.5334 14.9301C10.6785 14.785 10.7599 14.5883 10.7599 14.3831C10.7599 14.178 10.6785 13.9812 10.5334 13.8361C10.3883 13.6911 10.1916 13.6096 9.98641 13.6096H2.57078C2.36563 13.6096 2.16887 13.6911 2.02381 13.8361C1.87874 13.9812 1.79724 14.178 1.79724 14.3831C1.79724 14.5883 1.87874 14.785 2.02381 14.9301C2.16887 15.0752 2.36563 15.1567 2.57078 15.1567ZM5.66495 8.96833H9.98641C10.1916 8.96833 10.3883 8.88683 10.5334 8.74177C10.6785 8.5967 10.7599 8.39995 10.7599 8.19479C10.7599 7.98963 10.6785 7.79288 10.5334 7.64781C10.3883 7.50275 10.1916 7.42125 9.98641 7.42125H5.66495C5.45979 7.42125 5.26304 7.50275 5.11797 7.64781C4.97291 7.79288 4.89141 7.98963 4.89141 8.19479C4.89141 8.39995 4.97291 8.5967 5.11797 8.74177C5.26304 8.88683 5.45979 8.96833 5.66495 8.96833ZM52.9571 37.3232H50.9487C51.9136 36.4534 52.5563 35.2832 52.7727 34.0023C53.0218 32.5251 52.6936 31.0086 51.856 29.7666L52.2979 29.5036C52.3852 29.4517 52.4614 29.3831 52.5222 29.3017C52.583 29.2203 52.6271 29.1277 52.6521 29.0293C52.6771 28.9308 52.6825 28.8284 52.6679 28.7279C52.6533 28.6273 52.6191 28.5306 52.5671 28.4433C51.8593 27.2557 50.8143 26.3054 49.5651 25.713C48.3158 25.1207 46.9187 24.9132 45.5512 25.1168C44.8921 23.5476 44.2138 21.3122 43.5567 19.1456C43.1734 17.8816 42.7801 16.585 42.3865 15.4065H42.8064C42.908 15.4065 43.0086 15.3865 43.1024 15.3476C43.1963 15.3088 43.2816 15.2518 43.3534 15.1799C43.4252 15.1081 43.4822 15.0228 43.5211 14.929C43.56 14.8351 43.58 14.7345 43.58 14.633V10.0854C43.58 9.9838 43.56 9.88321 43.5211 9.78936C43.4822 9.69551 43.4252 9.61023 43.3534 9.5384C43.2816 9.46657 43.1963 9.40959 43.1024 9.37072C43.0086 9.33185 42.908 9.31184 42.8064 9.31184H39.6746C39.0013 9.31273 38.3472 9.53618 37.8141 9.94742C37.281 10.3587 36.8988 10.9346 36.727 11.5856H33.7673C33.5621 11.5856 33.3654 11.6671 33.2203 11.8122C33.0752 11.9573 32.9937 12.154 32.9937 12.3592C32.9937 12.5643 33.0752 12.7611 33.2203 12.9061C33.3654 13.0512 33.5621 13.1327 33.7673 13.1327H36.727C36.8418 13.5681 37.0517 13.9726 37.3417 14.3169C37.3485 14.3624 37.3593 14.4071 37.3739 14.4506C37.8049 15.7117 38.5635 18.5446 38.618 18.8019C39.4642 22.798 39.5826 27.7575 35.3415 28.6915C34.4151 28.8905 33.4525 28.8405 32.5516 28.5465C31.6508 28.2525 30.844 27.725 30.2133 27.0178C28.6175 25.1908 28.5116 22.3787 29.9549 20.178C30.3533 19.9242 30.6585 19.5481 30.8247 19.106C30.991 18.6639 31.0093 18.1798 30.8769 17.7265C30.7446 17.2731 30.4686 16.8749 30.0906 16.5918C29.7126 16.3086 29.2529 16.1557 28.7806 16.1562H28.1202C28.1333 16.0708 28.1402 15.9845 28.1409 15.8981V12.9561C29.221 12.8585 30.259 12.49 31.1589 11.8846C32.0587 11.2793 32.7913 10.4566 33.2888 9.49294C33.7862 8.52923 34.0325 7.45559 34.0048 6.37141C33.9771 5.28724 33.6763 4.22758 33.1302 3.29055C32.5842 2.35352 31.8105 1.56941 30.8809 1.01082C29.9513 0.452226 28.8958 0.137206 27.8121 0.0949275C26.7284 0.0526491 25.6515 0.284479 24.6812 0.768952C23.7109 1.25343 22.8785 1.97488 22.2611 2.86652H14.112C13.6334 2.86707 13.1747 3.0574 12.8363 3.39578C12.4979 3.73415 12.3076 4.19292 12.307 4.67145V15.8981C12.3076 16.3767 12.4979 16.8354 12.8363 17.1738C13.1747 17.5122 13.6334 17.7025 14.112 17.7031H15.3167C15.1948 18.1011 15.1897 18.5258 15.3022 18.9267C15.4146 19.3275 15.6397 19.6877 15.9508 19.9643C15.6837 20.0885 15.4223 20.2228 15.1686 20.3694C12.518 21.9012 10.2753 24.8848 9.4552 27.9705C8.94447 29.892 9.05796 31.6376 9.7723 32.8934C9.77341 32.8955 9.77459 32.8976 9.77571 32.8997C9.78129 32.9094 9.78612 32.9198 9.79176 32.9295C9.79438 32.934 9.79771 32.9379 9.8004 32.9423C9.81261 32.9624 9.82573 32.9818 9.83976 33.0007C9.84388 33.0062 9.84759 33.0122 9.85188 33.0176C9.87018 33.0408 9.88978 33.0629 9.91059 33.0839C9.91639 33.0898 9.92252 33.0952 9.92852 33.1009C9.94531 33.1169 9.96283 33.1321 9.98107 33.1466C9.98736 33.1516 9.99357 33.1566 10 33.1613C10.0233 33.1787 10.0475 33.1948 10.0726 33.2095L10.0753 33.2112C10.1025 33.2267 10.1306 33.2406 10.1595 33.2526C10.1654 33.2551 10.1715 33.2572 10.1775 33.2595C10.1998 33.2683 10.2227 33.276 10.246 33.2828C10.2549 33.2854 10.2637 33.2877 10.2727 33.29C10.281 33.2921 10.2889 33.2948 10.2973 33.2966C10.3119 33.2998 10.3264 33.3014 10.3409 33.3036C10.3491 33.3049 10.3571 33.3066 10.3653 33.3076C10.3971 33.3118 10.4292 33.314 10.4614 33.3142C10.4632 33.3142 10.4649 33.3138 10.4668 33.3138L10.4703 33.3137L13.2127 33.2781C13.2509 34.0473 13.4421 34.8013 13.775 35.4958C14.1079 36.1903 14.5759 36.8116 15.1517 37.3232H1.69713C1.49197 37.3232 1.29522 37.4047 1.15015 37.5497C1.00508 37.6948 0.923584 37.8915 0.923584 38.0967C0.923584 38.3019 1.00508 38.4986 1.15015 38.6437C1.29522 38.7887 1.49197 38.8702 1.69713 38.8702H52.9571C53.1623 38.8702 53.359 38.7887 53.5041 38.6437C53.6492 38.4986 53.7307 38.3019 53.7307 38.0967C53.7307 37.8915 53.6492 37.6948 53.5041 37.5497C53.359 37.4047 53.1623 37.3232 52.9571 37.3232ZM46.577 26.5908C47.3851 26.59 48.1832 26.7699 48.9129 27.1171C49.6426 27.4644 50.2855 27.9703 50.7946 28.5979L50.4238 28.8185C50.3353 28.8512 50.2535 28.8999 50.1826 28.9621L41.2796 34.2599C40.7824 33.0575 40.7343 31.7164 41.144 30.4814C41.5538 29.2465 42.394 28.2001 43.5114 27.5333L43.8181 27.3508C44.6522 26.853 45.6056 26.5903 46.577 26.5908ZM48.1973 33.2179C48.1521 33.4819 48.0174 33.7223 47.8159 33.8986C47.6143 34.0749 47.3582 34.1765 47.0906 34.1863C46.8229 34.196 46.5601 34.1134 46.3463 33.9522C46.1324 33.791 45.9806 33.5611 45.9162 33.3011L47.8347 32.1595C47.9789 32.2915 48.0877 32.4575 48.1511 32.6425C48.2145 32.8274 48.2304 33.0253 48.1973 33.2179ZM38.1743 12.3592C38.1748 11.9614 38.333 11.5801 38.6142 11.2988C38.8955 11.0176 39.2768 10.8594 39.6746 10.8589H42.0329V13.8594H39.6746C39.2768 13.859 38.8955 13.7008 38.6142 13.4195C38.333 13.1383 38.1748 12.7569 38.1743 12.3592ZM28.7806 17.7033C28.9488 17.7032 29.1102 17.7697 29.2295 17.8882C29.3488 18.0067 29.4163 18.1676 29.4174 18.3357C29.4184 18.5039 29.3529 18.6656 29.2351 18.7856C29.1173 18.9056 28.9567 18.9741 28.7886 18.9761H21.4283C20.9477 18.9487 20.4659 18.9488 19.9853 18.9765H17.4052C17.3215 18.9766 17.2386 18.9602 17.1613 18.9283C17.0839 18.8964 17.0137 18.8495 16.9545 18.7903C16.8953 18.7312 16.8483 18.661 16.8162 18.5837C16.7842 18.5064 16.7677 18.4236 16.7677 18.3399C16.7677 18.2562 16.7842 18.1734 16.8162 18.0961C16.8483 18.0188 16.8953 17.9486 16.9545 17.8894C17.0137 17.8303 17.0839 17.7834 17.1613 17.7515C17.2386 17.7195 17.3215 17.7031 17.4052 17.7033H28.7806ZM27.5563 1.63711C28.5254 1.63698 29.4728 1.92423 30.2787 2.46255C31.0845 3.00086 31.7126 3.76606 32.0836 4.66138C32.4546 5.55669 32.5517 6.5419 32.3627 7.49242C32.1737 8.44294 31.7071 9.31607 31.0219 10.0014C30.3367 10.6867 29.4636 11.1534 28.5131 11.3426C27.5626 11.5317 26.5774 11.4347 25.682 11.0639C24.7867 10.693 24.0214 10.065 23.483 9.25922C22.9445 8.45344 22.6571 7.50608 22.6571 6.53696C22.6585 5.23798 23.1751 3.99259 24.0935 3.07401C25.012 2.15542 26.2573 1.63867 27.5563 1.63711ZM14.112 16.156C14.0436 16.1559 13.9781 16.1287 13.9297 16.0804C13.8814 16.032 13.8542 15.9665 13.8541 15.8981V4.67145C13.8542 4.60309 13.8814 4.53755 13.9297 4.48921C13.9781 4.44088 14.0436 4.41368 14.112 4.4136H21.471C21.1583 5.3081 21.0467 6.26056 21.1443 7.2031C21.2418 8.14565 21.546 9.05509 22.0352 9.86662C22.5244 10.6781 23.1866 11.3718 23.9745 11.8981C24.7625 12.4245 25.6568 12.7705 26.5938 12.9117V15.8981C26.5937 15.9665 26.5666 16.032 26.5182 16.0804C26.4699 16.1287 26.4043 16.1559 26.336 16.156H14.112ZM10.9504 28.3679C11.6703 25.6592 13.6299 23.0454 15.9427 21.7088C17.1943 21.0023 18.593 20.5965 20.0283 20.5236H28.0182C26.9189 23.0753 27.2812 26.0125 29.0482 28.0355C29.8626 28.9501 30.9049 29.6324 32.0689 30.0131C33.2328 30.3937 34.4769 30.459 35.6743 30.2023C39.9498 29.2608 41.5327 25.0983 40.1316 18.4815C40.0789 18.2326 39.6748 16.7128 39.2833 15.3805C39.413 15.3975 39.5437 15.4062 39.6746 15.4065H40.753C41.1939 16.6853 41.6415 18.1613 42.0762 19.5946C42.7186 21.7129 43.3811 23.8961 44.0449 25.523C43.6928 25.6615 43.3524 25.8281 43.027 26.0213L42.7203 26.2038C41.9333 26.6692 41.2463 27.2861 40.6993 28.0188C40.1523 28.7515 39.756 29.5854 39.5335 30.4723C39.4573 30.7744 39.4011 31.0813 39.3654 31.3908L27.5171 31.5449C26.7357 27.9546 24.2289 25.0782 21.1176 24.2809C18.9986 23.738 16.5912 24.1637 14.5125 25.4486C12.9036 26.4553 11.5947 27.8759 10.7227 29.5618C10.7687 29.1587 10.8448 28.7596 10.9504 28.3679ZM11.4739 31.7535C12.1532 29.6654 13.5212 27.8802 15.326 26.7645C17.0489 25.6996 19.02 25.3405 20.7336 25.7797C23.1972 26.4109 25.2073 28.683 25.9337 31.5654L11.4739 31.7535ZM20.1617 33.1877C20.1156 33.4561 19.9771 33.6998 19.77 33.8767C19.563 34.0536 19.3006 34.1523 19.0283 34.1559C18.756 34.1594 18.4911 34.0675 18.2796 33.8961C18.068 33.7247 17.9231 33.4846 17.8701 33.2175L20.1617 33.1877ZM19.0136 37.2509C17.9304 37.2496 16.8883 36.8362 16.0987 36.0946C15.3091 35.3531 14.8311 34.3389 14.7618 33.2579L16.3122 33.2378C16.3745 33.9176 16.6908 34.549 17.198 35.0059C17.7053 35.4628 18.3662 35.7117 19.0488 35.7028C19.7315 35.6939 20.3857 35.4279 20.8809 34.958C21.3761 34.488 21.6758 33.8487 21.7204 33.1674L23.2708 33.1473C23.2289 34.2488 22.7623 35.2914 21.9686 36.0564C21.175 36.8215 20.116 37.2496 19.0136 37.2509ZM22.8756 37.3232C23.4701 36.7946 23.9494 36.1492 24.2837 35.4273C24.6179 34.7054 24.7999 33.9224 24.8183 33.1271L26.8302 33.101C26.8653 33.1029 26.9006 33.1025 26.9357 33.0996L39.3582 32.938C39.4661 33.9301 39.7868 34.8871 40.2983 35.7439C40.3502 35.8312 40.4188 35.9075 40.5002 35.9682C40.5816 36.029 40.6742 36.0732 40.7726 36.0982C40.8711 36.1232 40.9735 36.1285 41.074 36.1139C41.1746 36.0994 41.2713 36.0651 41.3585 36.0132L41.8924 35.6955C42.21 36.3082 42.6344 36.8594 43.1455 37.3232H22.8756ZM49.5086 36.4998C49.0054 36.8557 48.431 37.0982 47.825 37.2106C47.2189 37.3229 46.5957 37.3025 45.9984 37.1507C45.401 36.9988 44.8437 36.7192 44.3649 36.3311C43.886 35.943 43.4971 35.4556 43.225 34.9026L44.563 34.1063C44.7169 34.4591 44.944 34.775 45.2294 35.0332C45.5148 35.2913 45.8518 35.4858 46.2181 35.6037C46.5844 35.7216 46.9716 35.7602 47.354 35.7169C47.7364 35.6736 48.1052 35.5495 48.4359 35.3527C48.7666 35.1559 49.0516 34.891 49.272 34.5756C49.4925 34.2602 49.6432 33.9014 49.7144 33.5232C49.7855 33.1451 49.7753 32.7561 49.6845 32.3821C49.5937 32.0082 49.4244 31.6578 49.1878 31.3543L50.5249 30.5587C50.8485 31.0154 51.0789 31.5315 51.203 32.0773C51.3271 32.6231 51.3423 33.1881 51.248 33.7398C51.1536 34.2916 50.9514 34.8193 50.653 35.2929C50.3545 35.7664 49.9657 36.1766 49.5086 36.4998Z" fill="#592E1E"/>
</svg>
