<svg width="34" height="26" viewBox="0 0 34 26" fill="none" xmlns="http://www.w3.org/2000/svg">
<path d="M7.97902 13.8089C7.27038 13.8073 6.5772 14.0159 5.98721 14.4084C5.39721 14.801 4.93694 15.3597 4.66463 16.0139C4.39233 16.6682 4.32024 17.3885 4.4575 18.0837C4.59476 18.7789 4.93518 19.4178 5.43569 19.9194C5.9362 20.4211 6.57429 20.763 7.26919 20.9018C7.96409 21.0406 8.68456 20.9702 9.33941 20.6994C9.99426 20.4286 10.554 19.9696 10.9479 19.3805C11.3418 18.7914 11.552 18.0987 11.552 17.3901C11.552 16.4417 11.1759 15.532 10.506 14.8607C9.83619 14.1893 8.92739 13.811 7.97902 13.8089ZM7.97902 19.9897C7.46449 19.9914 6.96106 19.8403 6.53247 19.5556C6.10388 19.2709 5.7694 18.8654 5.57138 18.3906C5.37336 17.9157 5.32072 17.3927 5.42011 16.8879C5.5195 16.383 5.76646 15.919 6.12971 15.5546C6.49296 15.1902 6.95618 14.9418 7.4607 14.8409C7.96521 14.7399 8.48835 14.7909 8.96386 14.9874C9.43937 15.184 9.84587 15.5172 10.1319 15.9449C10.4179 16.3726 10.5706 16.8755 10.5706 17.3901C10.5709 18.0782 10.2982 18.7384 9.81234 19.2258C9.3265 19.7131 8.66717 19.9879 7.97902 19.9897ZM33.179 15.7782C33.4351 15.3596 33.5432 14.8671 33.4861 14.3798C33.4291 13.8924 33.2101 13.4382 32.8643 13.0901C32.7469 12.9726 32.6165 12.8688 32.4757 12.7806V11.4725C32.4743 10.2669 31.9948 9.11102 31.1423 8.2585C30.2898 7.40598 29.1339 6.92644 27.9283 6.92507H17.3723C16.3543 6.92344 15.3654 7.26401 14.5643 7.89206L15.5317 2.03851C15.5451 1.95714 15.5379 1.8737 15.5105 1.79589C15.4832 1.71808 15.4367 1.64841 15.3753 1.59332C15.3139 1.53823 15.2397 1.4995 15.1594 1.48071C15.0791 1.46192 14.9953 1.46367 14.9159 1.4858L12.5505 2.14458C12.4617 2.1693 12.3816 2.21855 12.3195 2.28667C12.2574 2.3548 12.2157 2.43904 12.1993 2.52975L11.7939 4.76607L11.5697 2.23097C11.5626 2.15022 11.5355 2.07249 11.491 2.00473C11.4465 1.93697 11.3859 1.8813 11.3147 1.84268C11.2434 1.80406 11.1636 1.7837 11.0826 1.78342C11.0015 1.78314 10.9216 1.80294 10.8501 1.84106L9.45061 2.58691L9.40291 0.794492C9.40071 0.711775 9.37763 0.630956 9.33582 0.55955C9.29401 0.488143 9.23483 0.428469 9.16376 0.386074C9.0927 0.34368 9.01208 0.319942 8.92938 0.317069C8.84668 0.314195 8.7646 0.332278 8.69077 0.369637L6.49909 1.47858C6.41712 1.52005 6.34845 1.5837 6.30087 1.66227C6.25329 1.74085 6.22872 1.8312 6.22995 1.92305L6.23585 2.36151L5.25928 1.84107C5.1869 1.8025 5.10601 1.7827 5.024 1.78345C4.94199 1.78421 4.86147 1.80551 4.78981 1.8454C4.71816 1.88529 4.65764 1.94251 4.61379 2.01181C4.56994 2.08112 4.54416 2.16031 4.5388 2.24215L4.30561 5.80991L3.50082 2.6486C3.47812 2.55938 3.43077 2.47835 3.36419 2.41477C3.29761 2.35119 3.21448 2.30762 3.12431 2.28905L0.71965 1.79353C0.638885 1.77689 0.555231 1.78088 0.476413 1.80511C0.397595 1.82935 0.326154 1.87305 0.268687 1.93219C0.211221 1.99133 0.169582 2.06399 0.147616 2.14347C0.12565 2.22295 0.124065 2.30669 0.143007 2.38694L1.8077 9.43776C1.60306 9.46017 1.405 9.52344 1.22527 9.62384C1.04554 9.72424 0.887807 9.85971 0.761423 10.0222C0.635039 10.1847 0.54258 10.371 0.48953 10.5699C0.43648 10.7688 0.42392 10.9763 0.452595 11.1802L2.20674 23.726C2.27096 24.1756 2.49469 24.5871 2.8371 24.8855C3.17951 25.1839 3.61778 25.3492 4.07194 25.3512H11.8861C12.3402 25.3492 12.7785 25.1838 13.1209 24.8855C13.4633 24.5871 13.687 24.1756 13.7513 23.726L13.7706 23.5874C14.1951 24.1383 14.7409 24.584 15.3655 24.8898C15.9901 25.1957 16.6768 25.3535 17.3723 25.3511H27.9283C29.1339 25.3497 30.2898 24.8701 31.1423 24.0176C31.9948 23.1651 32.4743 22.0092 32.4757 20.8036V19.4789C32.828 19.2658 33.1194 18.9655 33.3217 18.6069C33.524 18.2483 33.6304 17.8436 33.6306 17.4319V17.1774C33.6321 16.675 33.474 16.185 33.179 15.7782ZM32.5195 14.6308C32.5215 14.8441 32.4656 15.0539 32.3577 15.2378C32.2499 15.4218 32.0941 15.573 31.907 15.6754C31.719 15.781 31.5059 15.8335 31.2903 15.8275C31.0748 15.8214 30.8649 15.757 30.6831 15.641C30.1364 15.2996 29.5592 15.1406 28.8665 15.1406C27.6638 15.1406 27.0431 15.617 26.4955 16.0373C26.0105 16.4096 25.5916 16.7312 24.7221 16.7312C23.853 16.7312 23.4343 16.4096 22.9494 16.0374C22.402 15.617 21.7815 15.1406 20.579 15.1406C19.3766 15.1406 18.7561 15.617 18.2087 16.0374C17.7238 16.4096 17.305 16.7312 16.4359 16.7312C15.6559 16.7312 15.2385 16.4719 14.8106 16.1496L15.1904 13.4328H31.3254C31.4825 13.4331 31.638 13.4642 31.783 13.5246C31.928 13.5849 32.0598 13.6732 32.1707 13.7845C32.2815 13.8957 32.3694 14.0277 32.4293 14.173C32.4892 14.3182 32.5198 14.4738 32.5195 14.6308ZM17.3723 7.90653H27.9283C28.8737 7.9076 29.7801 8.28364 30.4486 8.95217C31.1171 9.62069 31.4932 10.5271 31.4942 11.4725V12.4584C31.4383 12.4542 31.3821 12.4514 31.3254 12.4514H15.3277L15.5054 11.1802C15.5571 10.8133 15.4745 10.4402 15.2728 10.1294C15.0712 9.81855 14.764 9.59105 14.408 9.4887C14.7333 9.00099 15.1742 8.60131 15.6914 8.32526C16.2086 8.04921 16.786 7.90536 17.3723 7.90653ZM12.1211 8.46289L13.1101 3.00751L14.4379 2.63774L13.3188 9.40987C13.3155 9.41618 13.3124 9.4225 13.3092 9.42884L12.2061 9.42886L12.1208 8.46416L12.1211 8.46289ZM10.6574 3.05595L11.2209 9.42889H11.1125C11.048 9.42889 10.9841 9.44162 10.9245 9.46637C10.8648 9.49112 10.8107 9.52739 10.7651 9.57311C10.4439 9.8961 10.0691 10.161 9.65737 10.356L9.47979 3.68355L10.6574 3.05595ZM8.4424 1.59525L8.68379 10.6665C8.23625 10.7482 7.77791 10.7514 7.32926 10.676L7.21547 2.21608L8.4424 1.59525ZM5.08337 8.95833C5.08346 8.95688 5.08358 8.95544 5.08366 8.95397L5.46858 3.06477L6.25092 3.48173L6.34363 10.3751C5.91517 10.1787 5.52542 9.90706 5.1929 9.57304C5.15146 9.53172 5.10295 9.49816 5.04967 9.47394L5.08337 8.95833ZM1.27496 2.91007L2.62546 3.18834L4.09871 8.97544L4.06908 9.42883H2.81405L1.27496 2.91007ZM13.7985 16.3003L13.3988 19.1589C13.3978 19.1658 13.3967 19.1727 13.3959 19.1795L13.0093 21.9451C13.0088 21.9489 13.008 21.9528 13.0076 21.9567L12.7793 23.59C12.7487 23.8055 12.6416 24.0029 12.4777 24.146C12.3137 24.2892 12.1037 24.3686 11.8861 24.3698H4.07194C3.85429 24.3686 3.64432 24.2892 3.48035 24.146C3.31638 24.0029 3.20934 23.8056 3.17875 23.5901L1.4246 11.0443C1.413 10.9653 1.41875 10.8846 1.44146 10.8079C1.46417 10.7313 1.50329 10.6605 1.5561 10.6005C1.60763 10.5405 1.6716 10.4923 1.7436 10.4595C1.81559 10.4266 1.89387 10.4098 1.973 10.4103L2.42389 10.4103L2.42527 10.4104L2.42728 10.4103L4.64785 10.4104C5.55537 11.2471 6.74459 11.7117 7.97901 11.7117C9.21343 11.7117 10.4026 11.2471 11.3101 10.4103H13.6192C13.6238 10.4103 13.6284 10.4104 13.633 10.4103H13.985C14.0641 10.4098 14.1424 10.4266 14.2144 10.4595C14.2864 10.4923 14.3504 10.5405 14.4019 10.6005C14.4547 10.6605 14.4938 10.7313 14.5165 10.8079C14.5392 10.8846 14.545 10.9653 14.5334 11.0443L13.8008 16.2839C13.7999 16.2894 13.7992 16.2948 13.7985 16.3003ZM31.4942 20.8036C31.4932 21.749 31.1171 22.6554 30.4486 23.324C29.7801 23.9925 28.8737 24.3685 27.9283 24.3696H17.3723C16.6282 24.3725 15.902 24.1414 15.2965 23.7089C14.691 23.2764 14.2368 22.6645 13.9982 21.9597L14.2967 19.8248H16.1256L17.9495 22.5624C17.9943 22.6297 18.055 22.6849 18.1263 22.723C18.1975 22.7611 18.2771 22.7811 18.3579 22.7811C18.4387 22.7811 18.5183 22.7611 18.5895 22.723C18.6608 22.6849 18.7215 22.6297 18.7663 22.5624L20.5903 19.8248H31.4942V20.8036ZM17.3049 19.8248H19.4109L18.3579 21.4053L17.3049 19.8248ZM32.6491 17.4319C32.6487 17.8061 32.4998 18.1648 32.2353 18.4294C31.9707 18.694 31.6119 18.8429 31.2378 18.8433H14.4939C14.4739 18.8433 14.4542 18.8417 14.4343 18.8409L14.6587 17.2359C15.0936 17.5011 15.6355 17.7126 16.4359 17.7126C17.6384 17.7126 18.2589 17.2362 18.8064 16.8158C19.2912 16.4436 19.7099 16.122 20.579 16.122C21.4481 16.122 21.8669 16.4436 22.3517 16.8158C22.8992 17.2362 23.5197 17.7126 24.7221 17.7126C25.9248 17.7126 26.5455 17.2362 27.0931 16.8159C27.5782 16.4436 27.997 16.122 28.8665 16.122C29.5133 16.122 29.8849 16.2997 30.1632 16.4735C30.4931 16.6835 30.8738 16.8 31.2647 16.8106C31.6557 16.8213 32.0422 16.7255 32.383 16.5337C32.4116 16.5178 32.4391 16.5006 32.4668 16.4836C32.5867 16.6951 32.6495 16.9342 32.6491 17.1774V17.4319Z" fill="#CE6221"/>
</svg>
