<svg width="35" height="31" viewBox="0 0 35 31" fill="none" xmlns="http://www.w3.org/2000/svg">
<path d="M34.7591 21.7131C34.7591 21.7097 34.7593 21.7066 34.7591 21.7032C34.6175 17.8826 21.6544 14.266 15.5925 14.1781C10.0995 14.1 4.65097 15.6334 2.34007 17.9108C1.49391 18.7449 1.06418 19.6607 1.06222 20.6323L1.06196 20.634C0.996929 24.5571 0.995776 24.4445 0.999471 24.4826C1.41226 28.3764 4.66087 30.6698 9.91238 30.7749C10.0076 30.7768 10.1026 30.7777 10.198 30.7777C13.4361 30.7777 16.7901 29.6983 19.5001 28.8261C21.3404 28.2338 22.9298 27.7223 24.0935 27.6497C24.526 27.6227 25.0646 27.6061 25.6347 27.5886C28.5778 27.4983 32.6084 27.3744 34.1422 25.733C34.3516 25.5155 34.5143 25.2576 34.6205 24.975C34.7266 24.6924 34.7739 24.3911 34.7594 24.0896V21.7142L34.7591 21.7131ZM2.75525 18.3319C4.8742 16.2433 10.0609 14.7664 15.1984 14.7664C15.327 14.7664 15.4555 14.7674 15.5839 14.7693C21.9573 14.8616 34.0479 18.5779 34.1682 21.7236V21.7278C34.1808 21.955 34.1462 22.1824 34.0667 22.3956C33.9872 22.6089 33.8644 22.8033 33.706 22.9668C32.3339 24.4389 28.2903 24.5736 25.6147 24.6626C25.0655 24.6809 24.5466 24.6982 24.1207 24.7246C22.8698 24.8031 21.2306 25.3801 19.3325 26.0481C16.4555 27.0609 13.1926 28.2089 9.9884 28.1447C5.39237 28.0528 1.65314 24.6857 1.65314 20.6389C1.65314 19.8289 2.02393 19.0526 2.75525 18.3319ZM33.7102 25.3291C32.0566 27.099 26.486 26.9079 24.0566 27.0595C22.8191 27.1369 21.1971 27.6589 19.3189 28.2634C16.571 29.1479 13.1486 30.2517 9.9242 30.1837C5.01189 30.0856 1.97528 27.9918 1.58935 24.438L1.60709 23.3774C2.86113 26.429 6.13954 28.6591 9.97652 28.736C10.0635 28.7377 10.1501 28.7386 10.2372 28.7386C13.4705 28.7386 16.822 27.5586 19.5287 26.6059C21.3852 25.9524 22.9886 25.3879 24.1576 25.3148C24.5749 25.2887 25.0894 25.2717 25.6343 25.2535C28.5735 25.1558 32.5989 25.0218 34.1384 23.37C34.1491 23.3586 34.1579 23.3463 34.1683 23.3349V24.1005C34.1812 24.3258 34.1472 24.5514 34.0683 24.7629C33.9895 24.9744 33.8675 25.1672 33.7102 25.3291Z" fill="#CE6221"/>
<path d="M8.66823 24.5153L9.96478 26.136C10.0144 26.1951 10.0852 26.2326 10.162 26.2402C10.2389 26.2479 10.3157 26.2251 10.376 26.1769C10.4363 26.1286 10.4753 26.0587 10.4847 25.9821C10.4941 25.9054 10.4731 25.8281 10.4263 25.7667L9.12974 24.146C9.08023 24.0865 9.00935 24.0488 8.93233 24.041C8.85531 24.0332 8.7783 24.0559 8.71785 24.1042C8.65739 24.1526 8.61832 24.2227 8.60904 24.2996C8.59975 24.3765 8.62104 24.4539 8.66823 24.5153ZM7.96375 23.6346C7.9877 23.6657 8.01763 23.6918 8.05177 23.7112C8.08591 23.7307 8.12359 23.7431 8.1626 23.7478C8.20161 23.7525 8.24117 23.7494 8.27896 23.7387C8.31676 23.7279 8.35203 23.7097 8.38271 23.6852C8.4134 23.6606 8.43888 23.6302 8.45767 23.5957C8.47646 23.5612 8.48818 23.5233 8.49215 23.4842C8.49612 23.4451 8.49225 23.4056 8.48077 23.368C8.4693 23.3305 8.45044 23.2955 8.42531 23.2653L5.68796 19.8436C5.66403 19.8124 5.63412 19.7863 5.59996 19.7668C5.56581 19.7473 5.52811 19.7348 5.48906 19.73C5.45002 19.7253 5.41042 19.7284 5.37258 19.7391C5.33474 19.7499 5.29943 19.7681 5.26872 19.7926C5.238 19.8172 5.2125 19.8477 5.1937 19.8822C5.1749 19.9168 5.16319 19.9547 5.15925 19.9938C5.15531 20.033 5.15922 20.0725 5.17075 20.1101C5.18228 20.1477 5.2012 20.1826 5.2264 20.2128L7.96375 23.6346ZM9.71927 21.1298C9.66968 21.0705 9.59887 21.0331 9.52199 21.0254C9.44512 21.0177 9.36829 21.0404 9.30795 21.0887C9.24761 21.1369 9.20857 21.2069 9.19918 21.2836C9.18979 21.3603 9.21079 21.4376 9.2577 21.499L12.9822 26.1545C13.0317 26.214 13.1025 26.2518 13.1796 26.2596C13.2566 26.2674 13.3336 26.2447 13.394 26.1963C13.4545 26.148 13.4936 26.0778 13.5029 26.001C13.5121 25.9241 13.4909 25.8467 13.4437 25.7853L9.71927 21.1298ZM8.30099 20.3032C8.32495 20.3343 8.35487 20.3604 8.38901 20.3798C8.42315 20.3993 8.46082 20.4117 8.49982 20.4164C8.53882 20.4211 8.57837 20.418 8.61615 20.4072C8.65394 20.3965 8.6892 20.3783 8.71988 20.3538C8.75055 20.3292 8.77603 20.2988 8.79483 20.2643C8.81362 20.2298 8.82534 20.1919 8.82932 20.1529C8.8333 20.1138 8.82944 20.0743 8.81798 20.0367C8.80653 19.9991 8.78769 19.9642 8.76259 19.934L7.36284 18.1844C7.33891 18.1532 7.309 18.1271 7.27484 18.1076C7.24069 18.0881 7.20299 18.0756 7.16394 18.0708C7.1249 18.0661 7.0853 18.0692 7.04746 18.0799C7.00962 18.0907 6.97431 18.1089 6.9436 18.1334C6.91288 18.158 6.88738 18.1884 6.86858 18.223C6.84978 18.2575 6.83807 18.2955 6.83413 18.3346C6.83019 18.3738 6.8341 18.4133 6.84563 18.4509C6.85716 18.4885 6.87608 18.5234 6.90128 18.5536L8.30099 20.3032ZM15.6283 25.7094C15.6779 25.7688 15.7487 25.8064 15.8257 25.8142C15.9026 25.8219 15.9795 25.7992 16.0399 25.7509C16.1003 25.7026 16.1394 25.6325 16.1487 25.5558C16.1581 25.479 16.137 25.4016 16.0899 25.3403L9.52746 17.1372C9.47796 17.0776 9.40708 17.0398 9.33004 17.032C9.253 17.0242 9.17596 17.0469 9.11549 17.0952C9.05502 17.1436 9.01594 17.2138 9.00666 17.2907C8.99738 17.3675 9.01864 17.445 9.06586 17.5064L15.6283 25.7094ZM16.9939 22.7172C16.9699 22.686 16.94 22.6598 16.9059 22.6403C16.8717 22.6208 16.834 22.6083 16.795 22.6036C16.7559 22.5988 16.7163 22.6019 16.6785 22.6127C16.6406 22.6234 16.6053 22.6416 16.5746 22.6662C16.5439 22.6907 16.5184 22.7212 16.4996 22.7557C16.4808 22.7903 16.4691 22.8282 16.4651 22.8674C16.4612 22.9065 16.4651 22.946 16.4766 22.9836C16.4882 23.0212 16.5071 23.0562 16.5323 23.0864L17.9225 24.8244C17.9719 24.8841 18.0429 24.922 18.12 24.9299C18.1971 24.9378 18.2742 24.9151 18.3348 24.8667C18.3953 24.8182 18.4344 24.748 18.4436 24.671C18.4529 24.594 18.4315 24.5165 18.3841 24.4551L16.9939 22.7172ZM15.5589 21.8698C15.6084 21.9295 15.6793 21.9674 15.7564 21.9753C15.8335 21.9832 15.9107 21.9605 15.9712 21.9121C16.0317 21.8637 16.0708 21.7934 16.0801 21.7164C16.0893 21.6395 16.0679 21.5619 16.0205 21.5006L12.3035 16.8543C12.2796 16.8231 12.2497 16.7971 12.2155 16.7777C12.1814 16.7582 12.1437 16.7458 12.1047 16.7411C12.0657 16.7364 12.0262 16.7395 11.9884 16.7502C11.9506 16.761 11.9153 16.7792 11.8846 16.8037C11.854 16.8282 11.8285 16.8587 11.8097 16.8931C11.7909 16.9276 11.7792 16.9655 11.7752 17.0046C11.7712 17.0437 11.7751 17.0832 11.7865 17.1208C11.798 17.1583 11.8168 17.1933 11.8419 17.2235L15.5589 21.8698ZM20.393 24.1593C20.4421 24.2201 20.5133 24.259 20.591 24.2674C20.6687 24.2759 20.7465 24.2533 20.8076 24.2045C20.8686 24.1557 20.9078 24.0847 20.9167 24.007C20.9255 23.9294 20.9033 23.8514 20.8548 23.7901L14.7738 16.1892C14.7498 16.158 14.7199 16.1318 14.6858 16.1123C14.6516 16.0928 14.6139 16.0803 14.5749 16.0756C14.5358 16.0708 14.4962 16.0739 14.4584 16.0847C14.4205 16.0954 14.3852 16.1136 14.3545 16.1382C14.3238 16.1627 14.2983 16.1932 14.2795 16.2278C14.2607 16.2623 14.249 16.3003 14.245 16.3394C14.2411 16.3785 14.245 16.4181 14.2565 16.4557C14.2681 16.4933 14.287 16.5282 14.3122 16.5584L20.393 24.1593ZM22.8633 23.4942C22.8872 23.5254 22.9171 23.5514 22.9513 23.5709C22.9854 23.5903 23.0231 23.6028 23.0621 23.6075C23.1011 23.6122 23.1407 23.6091 23.1785 23.5983C23.2163 23.5876 23.2515 23.5694 23.2822 23.5448C23.3129 23.5203 23.3384 23.4899 23.3572 23.4554C23.376 23.4209 23.3877 23.3829 23.3917 23.3438C23.3956 23.3048 23.3918 23.2653 23.3803 23.2277C23.3688 23.1901 23.35 23.1552 23.3248 23.125L17.8653 16.3005C17.8158 16.241 17.7449 16.2033 17.6679 16.1955C17.5908 16.1877 17.5138 16.2104 17.4534 16.2588C17.3929 16.3071 17.3538 16.3773 17.3446 16.4541C17.3353 16.531 17.3565 16.6084 17.4037 16.6698L22.8633 23.4942ZM25.3332 22.8287C25.3827 22.8883 25.4536 22.926 25.5306 22.9339C25.6077 22.9417 25.6847 22.919 25.7452 22.8707C25.8056 22.8223 25.8447 22.7521 25.854 22.6752C25.8633 22.5984 25.842 22.5209 25.7948 22.4595L23.6291 19.7523C23.6052 19.7211 23.5752 19.695 23.5411 19.6755C23.5069 19.6559 23.4692 19.6435 23.4302 19.6387C23.3911 19.6339 23.3515 19.637 23.3137 19.6478C23.2759 19.6585 23.2406 19.6767 23.2098 19.7013C23.1791 19.7259 23.1536 19.7563 23.1348 19.7909C23.116 19.8254 23.1043 19.8634 23.1004 19.9025C23.0964 19.9416 23.1003 19.9812 23.1119 20.0188C23.1234 20.0564 23.1423 20.0913 23.1675 20.1215L25.3332 22.8287ZM22.2302 18.95C22.2542 18.9812 22.2841 19.0073 22.3182 19.0268C22.3524 19.0463 22.3901 19.0588 22.4291 19.0636C22.4682 19.0683 22.5078 19.0652 22.5456 19.0545C22.5834 19.0437 22.6188 19.0255 22.6495 19.001C22.6802 18.9764 22.7057 18.946 22.7245 18.9114C22.7433 18.8769 22.755 18.8389 22.7589 18.7998C22.7629 18.7606 22.759 18.7211 22.7474 18.6835C22.7359 18.6459 22.717 18.611 22.6918 18.5808L21.4108 16.9795C21.3614 16.92 21.2904 16.8822 21.2134 16.8744C21.1363 16.8665 21.0593 16.8892 20.9988 16.9376C20.9383 16.986 20.8992 17.0562 20.89 17.1331C20.8808 17.21 20.9021 17.2875 20.9493 17.3489L22.2302 18.95ZM27.8039 22.164C27.8533 22.2238 27.9242 22.2616 28.0014 22.2696C28.0785 22.2775 28.1556 22.2548 28.2162 22.2063C28.2767 22.1579 28.3158 22.0876 28.325 22.0107C28.3342 21.9337 28.3129 21.8562 28.2655 21.7948L25.2436 18.0176C25.194 17.9582 25.1232 17.9206 25.0462 17.9129C24.9693 17.9051 24.8924 17.9278 24.832 17.9761C24.7716 18.0244 24.7325 18.0945 24.7232 18.1712C24.7138 18.248 24.735 18.3254 24.782 18.3868L27.8039 22.164ZM30.2741 21.499C30.3236 21.5585 30.3945 21.5962 30.4715 21.604C30.5485 21.6118 30.6256 21.5891 30.686 21.5408C30.7465 21.4924 30.7855 21.4223 30.7948 21.3454C30.8041 21.2685 30.7829 21.1911 30.7357 21.1297L28.6964 18.5807C28.6725 18.5496 28.6426 18.5235 28.6084 18.5041C28.5743 18.4847 28.5366 18.4722 28.4976 18.4675C28.4586 18.4628 28.4191 18.4659 28.3813 18.4767C28.3435 18.4874 28.3082 18.5056 28.2775 18.5301C28.2469 18.5547 28.2214 18.5851 28.2026 18.6196C28.1838 18.6541 28.1721 18.692 28.1681 18.7311C28.1641 18.7701 28.168 18.8096 28.1794 18.8472C28.1909 18.8848 28.2097 18.9197 28.2348 18.9499L30.2741 21.499ZM6.67429 25.7094C6.72384 25.7688 6.79468 25.8064 6.87163 25.8142C6.94857 25.8219 7.02549 25.7992 7.08589 25.7509C7.14628 25.7026 7.18533 25.6325 7.19468 25.5558C7.20402 25.479 7.1829 25.4016 7.13586 25.3403L4.49377 22.0379C4.44428 21.9784 4.37339 21.9406 4.29636 21.9328C4.21932 21.925 4.14228 21.9477 4.08181 21.996C4.02133 22.0444 3.98226 22.1146 3.97297 22.1914C3.96369 22.2683 3.98495 22.3458 4.03218 22.4071L6.67429 25.7094ZM17.4419 6.65141C17.9424 7.29542 18.4151 7.90377 18.4949 8.51559C18.5467 9.08985 18.4377 9.6672 18.1801 10.183C17.8694 10.863 17.7164 11.6044 17.7326 12.3518C17.7353 12.4283 17.7676 12.5008 17.8227 12.5539C17.8778 12.6071 17.9513 12.6368 18.0279 12.6368L18.0385 12.6367C18.1169 12.6338 18.1909 12.6 18.2443 12.5427C18.2977 12.4853 18.3262 12.4091 18.3235 12.3307C18.3111 11.6646 18.4502 11.0045 18.7302 10.4C19.0256 9.79114 19.1471 9.11252 19.0812 8.439C18.9807 7.66771 18.4356 6.96669 17.9087 6.2886C17.3631 5.58657 16.7989 4.8606 16.7391 4.08408C16.5821 2.04252 18.3271 0.547452 18.3447 0.532672C18.4036 0.481962 18.4402 0.410068 18.4465 0.332568C18.4528 0.255068 18.4283 0.178204 18.3784 0.118631C18.3284 0.059057 18.257 0.0215722 18.1796 0.0142977C18.1021 0.00702329 18.025 0.0305452 17.9648 0.0797671C17.8832 0.148019 15.969 1.78013 16.1497 4.12937C16.223 5.08315 16.8426 5.8803 17.4419 6.65141ZM23.2278 8.30566C23.5801 8.75898 23.913 9.18723 23.9673 9.60437C24.0034 10.0028 23.9268 10.4034 23.7464 10.7605C23.5185 11.2594 23.4066 11.8034 23.419 12.3517C23.4218 12.4282 23.4541 12.5007 23.5091 12.5539C23.5642 12.607 23.6378 12.6368 23.7143 12.6368L23.725 12.6366C23.8033 12.6338 23.8773 12.6 23.9308 12.5426C23.9842 12.4852 24.0127 12.409 24.0099 12.3307C24.002 11.8637 24.0999 11.4011 24.2963 10.9774C24.5144 10.5273 24.6035 10.0255 24.5536 9.52787C24.4784 8.95147 24.0799 8.43861 23.6946 7.94282C23.3103 7.44835 22.9129 6.93698 22.8719 6.40439C22.7625 4.98244 23.9835 3.93416 23.9958 3.92375C24.0554 3.87323 24.0925 3.80117 24.0991 3.72332C24.1057 3.64547 24.0813 3.56817 24.0311 3.50832C23.9808 3.44847 23.909 3.41092 23.8312 3.4039C23.7534 3.39688 23.6759 3.42095 23.6158 3.47085C23.5559 3.5211 22.1497 4.72005 22.2825 6.44973C22.3372 7.1595 22.7899 7.74214 23.2278 8.30566ZM12.2022 8.30566C12.5545 8.75898 12.8874 9.18723 12.9418 9.60437C12.9779 10.0028 12.9013 10.4034 12.7208 10.7605C12.4931 11.2594 12.3812 11.8034 12.3936 12.3517C12.3963 12.4282 12.4286 12.5007 12.4837 12.5539C12.5388 12.607 12.6124 12.6368 12.6889 12.6368L12.6996 12.6366C12.7384 12.6353 12.7765 12.6262 12.8119 12.6101C12.8472 12.594 12.879 12.5711 12.9054 12.5427C12.9319 12.5143 12.9525 12.4809 12.9661 12.4445C12.9796 12.4082 12.9859 12.3695 12.9845 12.3307C12.9764 11.8637 13.0743 11.401 13.2709 10.9774C13.4889 10.5273 13.5779 10.0255 13.528 9.52787C13.4528 8.95147 13.0543 8.43876 12.669 7.94297C12.2847 7.44835 11.8874 6.93713 11.8464 6.40439C11.7371 4.98244 12.9579 3.93416 12.9702 3.92375C13.0302 3.87336 13.0678 3.80117 13.0747 3.72307C13.0815 3.64497 13.057 3.56735 13.0066 3.5073C12.9562 3.44724 12.884 3.40966 12.8059 3.40282C12.7278 3.39599 12.6502 3.42046 12.5902 3.47085C12.5303 3.5211 11.1239 4.72005 11.2571 6.44973C11.3115 7.1595 11.7643 7.74214 12.2022 8.30566Z" fill="#CE6221"/>
</svg>
