<svg width="33" height="32" viewBox="0 0 33 32" fill="none" xmlns="http://www.w3.org/2000/svg">
<path d="M7.39655 23.7738H7.12728V19.4851C7.12749 19.4452 7.11971 19.4056 7.10438 19.3686C7.08906 19.3317 7.0665 19.2982 7.03805 19.2701C7.00959 19.2421 6.97581 19.22 6.93868 19.2051C6.90156 19.1903 6.86184 19.183 6.82187 19.1838H6.47156V13.5697C6.5487 13.1411 6.46384 12.772 6.2156 12.5239C5.61002 11.9183 4.27494 12.3316 3.12137 13.4851C2.08645 14.52 1.65009 15.6938 1.99724 16.3616V19.1838H1.64693C1.60696 19.183 1.56724 19.1903 1.53011 19.2051C1.49299 19.22 1.4592 19.2421 1.43075 19.2701C1.40229 19.2982 1.37974 19.3317 1.36441 19.3686C1.34909 19.4056 1.3413 19.4452 1.34152 19.4851V23.7738H1.07225C1.03208 23.773 0.992144 23.7801 0.954768 23.7949C0.917392 23.8096 0.883321 23.8316 0.854537 23.8597C0.825753 23.8877 0.802832 23.9212 0.787106 23.9582C0.771381 23.9951 0.763166 24.0349 0.762939 24.075V30.4421C0.763365 30.8313 0.91788 31.2044 1.19269 31.48C1.4675 31.7555 1.84024 31.911 2.2294 31.9125H6.23939C6.62855 31.911 7.00129 31.7555 7.2761 31.48C7.55091 31.2044 7.70543 30.8313 7.70585 30.4421V24.075C7.70563 24.0349 7.69741 23.9951 7.68169 23.9582C7.66596 23.9212 7.64304 23.8877 7.61426 23.8597C7.58547 23.8316 7.5514 23.8096 7.51403 23.7949C7.47665 23.7801 7.43672 23.773 7.39655 23.7738ZM3.56066 13.9215C4.30182 13.1804 5.03438 12.862 5.46225 12.862C5.602 12.862 5.70911 12.8959 5.77356 12.9603C6.03485 13.2216 5.79555 14.1898 4.81232 15.1731C3.82908 16.1563 2.8609 16.3955 2.59957 16.1343C2.33825 15.873 2.57743 14.9048 3.56066 13.9215ZM2.61438 16.8184C2.7093 16.8374 2.8058 16.8474 2.90259 16.8484C3.56942 16.8484 4.45595 16.4048 5.25161 15.6094C5.4793 15.3816 5.66155 15.147 5.85441 14.9125V19.1838H2.61438V16.8184ZM1.95866 19.8009H6.51013V23.7738H1.95866V19.8009ZM7.08871 30.4421C7.08847 30.6676 6.99903 30.8839 6.83992 31.0438C6.6808 31.2036 6.46493 31.294 6.23939 31.2953H2.2294C2.00387 31.294 1.78799 31.2036 1.62888 31.0438C1.46976 30.8839 1.38033 30.6676 1.38009 30.4421V24.391H7.08871V30.4421Z" fill="#CE6221"/>
<path d="M2.4601 30.0854C2.54194 30.0854 2.62042 30.0528 2.67829 29.995C2.73616 29.9371 2.76867 29.8586 2.76867 29.7768V25.9933C2.76867 25.9115 2.73616 25.833 2.67829 25.7751C2.62042 25.7173 2.54194 25.6847 2.4601 25.6847C2.37826 25.6847 2.29977 25.7173 2.2419 25.7751C2.18403 25.833 2.15152 25.9115 2.15152 25.9933V29.7768C2.15152 29.8586 2.18403 29.9371 2.2419 29.995C2.29977 30.0528 2.37826 30.0854 2.4601 30.0854Z" fill="#CE6221"/>
<path d="M11.5472 0.912476C8.79628 0.912476 6.54718 3.1185 6.54718 5.8363C6.54718 7.4302 7.07111 9.00577 8.55499 10.5004C8.55877 10.5222 8.56399 10.5437 8.57062 10.5648C8.57062 10.5648 8.8145 11.3339 9.0589 12.2679C9.3033 13.2019 9.53937 14.3283 9.53937 14.8773C9.53937 16.1757 9.56295 18.1234 9.56476 18.2816C9.55314 18.3243 9.54723 18.3683 9.54718 18.4125V31.4125C9.54719 31.5451 9.59988 31.6722 9.69364 31.766C9.78741 31.8598 9.91458 31.9125 10.0472 31.9125H13.0472C13.1798 31.9125 13.307 31.8598 13.4007 31.766C13.4945 31.6722 13.5472 31.5451 13.5472 31.4125V18.4144C13.5472 18.4144 13.5491 16.4097 13.5491 14.8793C13.5491 14.2226 13.7865 13.1114 14.0316 12.2035C14.2766 11.2956 14.5198 10.5765 14.5198 10.5765C14.5275 10.5529 14.5334 10.5288 14.5374 10.5043C16.0227 9.00687 16.5472 7.4309 16.5472 5.8363C16.5472 3.1185 14.2981 0.912476 11.5472 0.912476ZM11.5472 1.91248C13.7668 1.91248 15.5472 3.6684 15.5472 5.8363C15.5472 7.273 15.1058 8.54218 13.6819 9.91248H9.41241C7.98853 8.54218 7.54718 7.273 7.54718 5.8363C7.54718 3.6684 9.32752 1.91248 11.5472 1.91248ZM9.70929 10.9125H13.3753C13.2778 11.2169 13.2196 11.3683 13.0648 11.9418C12.8106 12.8833 12.5491 14.0032 12.5491 14.8773C12.5491 16.1912 12.5477 17.4682 12.5472 17.9125H10.5609C10.5555 17.4359 10.5394 16.0276 10.5394 14.8773C10.5394 14.0822 10.2774 12.976 10.0257 12.014C9.86743 11.409 9.80496 11.228 9.70929 10.9125ZM10.5472 18.9125H12.5472V30.9125H10.5472V18.9125Z" fill="#CE6221"/>
<path d="M29.3016 6.0768C29.1932 6.0785 29.0898 6.12311 29.0142 6.20085C28.9385 6.2786 28.8967 6.38315 28.898 6.49162V12.2318H28.488C28.3793 12.2318 28.275 12.275 28.1981 12.3519C28.1212 12.4288 28.078 12.5331 28.078 12.6418V16.3288H26.0279C25.9719 16.3289 25.9164 16.3405 25.865 16.3628C25.8136 16.3852 25.7673 16.4179 25.729 16.4589C25.6907 16.4999 25.6613 16.5483 25.6424 16.6011C25.6236 16.6539 25.6158 16.71 25.6195 16.766L26.6029 31.5297C26.6098 31.6334 26.6558 31.7306 26.7316 31.8016C26.8075 31.8727 26.9074 31.9123 27.0113 31.9125H31.6048C31.7087 31.9123 31.8086 31.8727 31.8844 31.8016C31.9602 31.7306 32.0063 31.6334 32.0132 31.5297L32.9966 16.766C33.0003 16.71 32.9925 16.6539 32.9736 16.6011C32.9548 16.5483 32.9254 16.4999 32.8871 16.4589C32.8488 16.4179 32.8025 16.3852 32.7511 16.3628C32.6997 16.3405 32.6442 16.3289 32.5882 16.3288H30.5381V12.6418C30.5381 12.5331 30.4949 12.4288 30.418 12.3519C30.3411 12.275 30.2368 12.2318 30.1281 12.2318H29.7181V6.49162C29.7187 6.43683 29.7084 6.38247 29.6876 6.33175C29.6669 6.28102 29.6362 6.23497 29.5974 6.1963C29.5586 6.15763 29.5124 6.12713 29.4616 6.10661C29.4108 6.08608 29.3564 6.07595 29.3016 6.0768ZM28.898 13.0518H29.7181V16.3288H28.898V13.0518ZM17.4176 13.8719C17.3089 13.8719 17.2046 13.9151 17.1277 13.992C17.0508 14.0689 17.0076 14.1731 17.0076 14.2819V15.5119H16.5976V16.332H17.0076V17.152H16.5976V17.972H17.0076V18.792H16.1876C16.0857 18.792 15.9875 18.8298 15.912 18.8982C15.8365 18.9666 15.7891 19.0606 15.7792 19.162L14.5491 31.4624C14.5436 31.5194 14.55 31.5769 14.5679 31.6313C14.5859 31.6856 14.6151 31.7356 14.6536 31.778C14.692 31.8204 14.739 31.8543 14.7913 31.8774C14.8437 31.9006 14.9003 31.9125 14.9575 31.9125H23.1578C23.2151 31.9125 23.2717 31.9006 23.3241 31.8774C23.3764 31.8543 23.4233 31.8204 23.4618 31.778C23.5003 31.7356 23.5294 31.6856 23.5474 31.6313C23.5654 31.5769 23.5718 31.5194 23.5662 31.4624L22.3362 19.162C22.3262 19.0606 22.2789 18.9666 22.2034 18.8982C22.1279 18.8298 22.0297 18.792 21.9278 18.792H21.1078V17.972H21.5178V17.152H21.1078V16.332H21.5178V15.5119H21.1078V14.2819C21.1077 14.1731 21.0645 14.0689 20.9877 13.992C20.9108 13.9151 20.8065 13.8719 20.6977 13.8719H17.4176ZM17.8276 14.6919H20.2877V15.5119H17.8276V14.6919ZM17.8276 16.332H20.2877V17.152H17.8276V16.332ZM26.4652 17.1488H28.4464C28.4602 17.1495 28.4741 17.1495 28.488 17.1488H30.1281C30.1419 17.1495 30.1558 17.1495 30.1697 17.1488H32.1509L31.2204 31.0925H27.3957L26.4652 17.1488ZM17.8276 17.972H20.2877V18.792H17.8276V17.972ZM16.5592 19.6121H21.5562L22.7046 31.0925H15.4108L16.5592 19.6121Z" fill="#CE6221"/>
</svg>
