<svg width="28" height="25" viewBox="0 0 28 25" fill="none" xmlns="http://www.w3.org/2000/svg">
<path d="M2.3496 24.6602H13.0564C13.9649 24.6602 14.7036 23.9215 14.7036 23.013V20.1304C14.7036 19.9031 14.5196 19.7186 14.2918 19.7186H1.52599V10.659H12.6446C13.189 10.659 13.1898 9.83541 12.6446 9.83541H1.52599V8.60001C1.52599 8.14579 1.89538 7.7764 2.3496 7.7764C2.78899 7.7764 3.20244 7.60468 3.51376 7.29336C3.72501 7.08211 3.86585 6.82226 3.93833 6.541H8.11481C8.65921 6.541 8.66004 5.7174 8.11481 5.7174H3.9968V4.8938H11.4092V5.7174H10.9974C10.453 5.7174 10.4522 6.541 10.9974 6.541H11.4677C11.6518 7.2493 12.2913 7.7764 13.0564 7.7764C13.5106 7.7764 13.88 8.1462 13.88 8.60001V18.4832C13.88 19.028 14.7036 19.0285 14.7036 18.4832V8.60001C14.7036 8.16062 14.5323 7.74717 14.2206 7.43585C13.9093 7.12452 13.4958 6.9528 13.0564 6.9528C12.6022 6.9528 12.2328 6.58342 12.2328 6.1292V4.8938C12.687 4.8938 13.0564 4.52441 13.0564 4.0702V1.59939C13.0564 1.14517 12.687 0.775787 12.2328 0.775787H3.1732C2.71898 0.775787 2.3496 1.14517 2.3496 1.59939V4.0702C2.3496 4.52441 2.71898 4.8938 3.1732 4.8938V6.1292C3.1732 6.34869 3.08754 6.55542 2.93147 6.71108C2.7754 6.86674 2.56909 6.9528 2.3496 6.9528C1.44116 6.9528 0.702393 7.69157 0.702393 8.60001V23.013C0.702393 23.9215 1.44116 24.6602 2.3496 24.6602ZM3.1732 1.59939H3.9968V2.83479C3.9968 3.37919 4.8204 3.38002 4.8204 2.83479V1.59939H5.644V2.83479C5.644 3.37919 6.46761 3.38002 6.46761 2.83479V1.59939H7.29121V2.83479C7.29121 3.37919 8.11481 3.38002 8.11481 2.83479V1.59939H8.93841V2.83479C8.93841 3.37919 9.76202 3.38002 9.76202 2.83479V1.59939H10.5856V2.83479C10.5856 3.37919 11.4092 3.38002 11.4092 2.83479V1.59939H12.2328L12.2332 4.0702H3.1732V1.59939ZM13.88 20.5422V23.013C13.88 23.4673 13.5106 23.8366 13.0564 23.8366H2.3496C1.89538 23.8366 1.52599 23.4673 1.52599 23.013V20.5422H13.88ZM24.9987 16.054C24.4485 16.054 23.9317 16.2682 23.5429 16.6569C22.8491 17.3508 21.3888 18.811 19.4665 20.7333C18.1776 22.0227 19.0926 24.2484 20.9222 24.2484C21.4724 24.2484 21.9892 24.0343 22.378 23.6456C23.2773 22.7462 24.0836 21.9395 26.4544 19.5687C26.8431 19.18 27.0577 18.6628 27.0577 18.113C27.0577 16.9756 26.1373 16.054 24.9987 16.054ZM21.7957 23.0633C21.3291 23.5299 20.5154 23.5299 20.0488 23.0633C19.567 22.5815 19.567 21.7978 20.0488 21.316L21.7957 19.5692L23.5429 21.3164L21.7957 23.0633ZM25.8721 18.9865L24.1248 20.7337L22.3775 18.9865L24.1248 17.2392C25.2803 16.0841 27.0177 17.84 25.8721 18.9865ZM17.998 20.1304C19.3475 20.1304 20.4688 19.033 20.4688 17.6596C20.4688 16.297 19.3607 15.1888 17.998 15.1888C16.6486 15.1888 15.5272 16.2863 15.5272 17.6596C15.5272 19.0223 16.6354 20.1304 17.998 20.1304ZM16.5843 16.8282L18.8295 19.0733C17.3766 19.9315 15.7187 18.2942 16.5843 16.8282ZM19.4117 18.4911L17.1666 16.2459C18.6194 15.3877 20.2774 17.025 19.4117 18.4911Z" fill="#CE6221"/>
<path d="M6.87941 18.4832H8.52661C8.75393 18.4832 8.93841 18.2987 8.93841 18.0714V16.4242H10.5856C10.8129 16.4242 10.9974 16.2397 10.9974 16.0124V14.3652C10.9974 14.1379 10.8129 13.9534 10.5856 13.9534H8.93841V12.3062C8.93841 12.0789 8.75393 11.8944 8.52661 11.8944H6.87941C6.65209 11.8944 6.46761 12.0789 6.46761 12.3062V13.9534H4.8204C4.59309 13.9534 4.4086 14.1379 4.4086 14.3652V16.0124C4.4086 16.2397 4.59309 16.4242 4.8204 16.4242H6.46761V18.0714C6.46761 18.2987 6.65209 18.4832 6.87941 18.4832ZM5.2322 15.6006V14.777H6.87941C7.10672 14.777 7.29121 14.5925 7.29121 14.3652V12.718H8.11481V14.3652C8.11481 14.5925 8.2993 14.777 8.52661 14.777H10.1738V15.6006H8.52661C8.2993 15.6006 8.11481 15.7851 8.11481 16.0124V17.6596H7.29121V16.0124C7.29121 15.7851 7.10672 15.6006 6.87941 15.6006H5.2322Z" fill="#CE6221"/>
</svg>
