<svg width="33" height="32" viewBox="0 0 33 32" fill="none" xmlns="http://www.w3.org/2000/svg">
<path d="M21.1638 20.6256C22.1505 20.6256 22.9533 19.8228 22.9533 18.8358C22.9533 17.8489 22.1505 17.046 21.1638 17.046C20.1771 17.046 19.3742 17.8489 19.3742 18.8358C19.3742 19.8228 20.1771 20.6256 21.1638 20.6256ZM21.1638 18.015C21.6163 18.015 21.9844 18.383 21.9844 18.8358C21.9844 19.2886 21.6163 19.6567 21.1638 19.6567C20.7112 19.6567 20.3432 19.2886 20.3432 18.8358C20.3432 18.383 20.7112 18.015 21.1638 18.015Z" fill="#CE6221"/>
<path d="M0.969773 26.4606C1.06015 26.6011 1.21463 26.6829 1.37711 26.6829C1.40903 26.6829 1.44121 26.6796 1.47338 26.6735L18.5089 23.2219L18.7178 29.6021C18.7549 30.7281 19.6694 31.6194 20.7711 31.6194C21.9308 31.6194 22.861 30.6474 22.8223 29.4672L22.7241 26.4719C22.7159 26.2281 22.9051 26.0196 23.1558 26.0107C23.4065 26.0055 23.6086 26.1983 23.6164 26.4421L23.6791 28.3601C23.7059 29.1706 24.3741 29.8168 25.178 29.7823C25.9775 29.7563 26.6067 29.0755 26.5803 28.2645L26.363 21.6315L32.4796 20.3914C32.7369 20.3389 32.9059 20.091 32.8604 19.8327C30.174 4.55533 20.5899 0.230086 20.1832 0.0536234C19.9749 -0.0381553 19.7309 0.0299918 19.5977 0.213549L0.984661 25.9141C0.867552 26.0759 0.861657 26.2931 0.969773 26.4606ZM20.1409 1.11575C21.8495 2.03358 29.4158 6.76146 31.8216 19.536L28.735 20.1616C28.8015 19.9011 28.8451 19.6248 28.8406 19.3316C28.8073 17.1664 27.0157 17.1992 26.0295 16.7125C25.3258 16.3642 24.838 15.6035 24.8158 14.819C24.7903 13.8957 25.3159 12.7523 24.7488 11.7216C23.9876 10.338 22.1385 10.5628 21.0843 9.95353C20.3457 9.52611 19.9022 8.57805 20.3706 7.38687C20.9305 5.95824 20.4952 4.98379 19.3804 4.37646C18.9666 4.15104 18.5211 4.03438 18.0858 3.95349L20.1409 1.11575ZM17.4508 4.83006C17.967 4.90285 18.4867 4.99293 18.9167 5.2271C19.9065 5.76633 19.7015 6.43916 19.4683 7.03345C18.8226 8.68097 19.4566 10.1306 20.5989 10.7919C21.7778 11.4746 23.4102 11.2989 23.9001 12.189C24.2652 12.8524 23.8191 13.8405 23.8473 14.8465C23.8792 15.9796 24.5837 17.0781 25.6002 17.5811C26.7651 18.1579 27.8498 17.921 27.8719 19.3468C27.8784 19.7648 27.7656 20.161 27.5909 20.3936L25.8344 20.7496C25.756 20.7656 25.6899 20.8036 25.6315 20.8506C25.4796 20.9365 25.376 21.097 25.3821 21.2837L25.6118 28.2962C25.6208 28.573 25.4119 28.8053 25.1463 28.8143C24.8603 28.8214 24.6569 28.6047 24.6476 28.3284L24.5849 26.4108C24.5582 25.5902 23.842 24.9948 23.1242 25.0426C22.3446 25.067 21.7301 25.7198 21.7557 26.5036L21.8538 29.4993C21.874 30.108 21.412 30.63 20.8066 30.6499C20.1998 30.648 19.7064 30.1854 19.6863 29.5698L19.4587 22.6184L19.4583 22.6166C19.4495 22.314 19.1607 22.1002 18.8871 22.1561L2.49769 25.477L17.4508 4.83006Z" fill="#CE6221"/>
<path d="M19.7361 14.9733C20.266 13.4144 19.4291 11.7155 17.8704 11.1851C16.3068 10.6551 14.6137 11.4907 14.0831 13.051C13.4263 14.9836 14.8692 16.9982 16.9097 16.9982C18.1883 16.9983 19.3243 16.1845 19.7361 14.9733ZM18.8188 14.6611C18.5406 15.4796 17.7734 16.0293 16.9097 16.0293C15.528 16.0293 14.558 14.6651 15.0005 13.3633C15.3592 12.3079 16.5039 11.7445 17.5586 12.1024C18.6113 12.4606 19.1767 13.6084 18.8188 14.6611ZM11.0034 17.4946C10.1011 17.4946 9.2997 18.0689 9.00873 18.9239C8.63497 20.0239 9.22566 21.2227 10.3252 21.5965C11.4373 21.9747 12.6262 21.3733 12.9983 20.2803C13.4637 18.9107 12.4422 17.4946 11.0034 17.4946ZM12.0809 19.968C11.8841 20.548 11.2243 20.8787 10.6374 20.6795C10.0432 20.4771 9.72432 19.8298 9.92606 19.2361C10.0831 18.7738 10.5161 18.4635 11.0033 18.4635C11.7813 18.4635 12.3317 19.2295 12.0809 19.968Z" fill="#CE6221"/>
</svg>
