<svg width="26" height="26" viewBox="0 0 26 26" fill="none" xmlns="http://www.w3.org/2000/svg">
<path fill-rule="evenodd" clip-rule="evenodd" d="M7.68566 0.196655C3.65093 0.196655 0.380127 3.46746 0.380127 7.50218V17.8911C0.380127 21.9259 3.65093 25.1967 7.68566 25.1967H18.0746C22.1093 25.1967 25.3801 21.9259 25.3801 17.8911V7.50218C25.3801 3.46746 22.1093 0.196655 18.0746 0.196655H7.68566ZM7.01793 14.9796C8.27878 14.9796 9.30091 13.9575 9.30091 12.6967C9.30091 11.4358 8.27878 10.4137 7.01793 10.4137C5.75708 10.4137 4.73495 11.4358 4.73495 12.6967C4.73495 13.9575 5.75708 14.9796 7.01793 14.9796ZM15.1631 12.6967C15.1631 13.9575 14.1409 14.9796 12.8801 14.9796C11.6192 14.9796 10.5971 13.9575 10.5971 12.6967C10.5971 11.4358 11.6192 10.4137 12.8801 10.4137C14.1409 10.4137 15.1631 11.4358 15.1631 12.6967ZM18.7425 14.9796C20.0033 14.9796 21.0255 13.9575 21.0255 12.6967C21.0255 11.4358 20.0033 10.4137 18.7425 10.4137C17.4816 10.4137 16.4595 11.4358 16.4595 12.6967C16.4595 13.9575 17.4816 14.9796 18.7425 14.9796Z" fill="#CE6221"/>
</svg>
